<svg xmlns="http://www.w3.org/2000/svg" width="829" height="265" viewBox="0 0 829 265" fill="none">
<mask id="mask0_401_810" style="mask-type:alpha" maskUnits="userSpaceOnUse" x="0" y="0" width="829" height="265">
<path d="M829 264.555L0 264.555L2.31554e-05 8.01999e-05L829 0.000152588L829 264.555Z" fill="#C4C4C4"/>
</mask>
<g mask="url(#mask0_401_810)">
<path opacity="0.84" d="M897.386 281.671C877.922 276.367 858.496 269.203 839.319 260.302C821.199 251.89 803.636 241.772 789.165 228.008C760.462 200.721 746.423 161.876 733.345 124.518C691.842 5.9027 734.843 -112.492 850.429 -166.673C928.643 -203.331 1025.12 -198.056 1098.86 -153.082C1172.6 -108.109 1221.38 -24.8086 1224.47 61.4267C1225.3 84.5513 1222.98 108.069 1214.81 129.717C1203.47 159.766 1181.64 184.492 1160.27 208.49C1088.78 288.759 992.635 307.597 897.386 281.662L897.386 281.671Z" fill="#A5DDE1"/>
<path opacity="0.84" d="M179.082 91.4476C147.422 82.8251 115.81 71.1621 84.6207 56.6888C55.1502 43.0116 26.5824 26.5434 3.03681 4.16692C-43.6511 -40.2216 -66.4957 -103.399 -87.7655 -164.179C-155.281 -357.137 -85.3264 -549.72 102.693 -637.845C229.918 -697.474 386.854 -688.89 506.8 -615.747C626.746 -542.604 706.093 -407.098 711.124 -266.816C712.469 -229.199 708.705 -190.949 695.405 -155.729C676.949 -106.843 641.457 -66.6168 606.686 -27.5803C490.399 102.995 334.001 133.63 179.072 91.4476L179.082 91.4476Z" fill="#FFB600"/>
<path opacity="0.5" d="M503.122 17.7578C476.801 34.6576 447.542 47.3373 419.858 48.0087C409.516 48.2581 399.222 46.9152 388.966 45.5629C367.034 42.6855 342.153 45.1121 321.479 36.0292C300.487 26.8024 280.61 10.056 261.174 -2.47986C281.215 -5.45316 308.198 -12.378 325.55 -23.1586C342.153 -33.4788 353.235 -43.4538 373.102 -49.6689C415.536 -62.9433 461.149 -64.689 504.975 -58.2724C533.197 -54.1386 561.803 -52.1627 589.286 -61.0922C580.49 -58.234 564.195 -32.6827 556.829 -25.4317C542.089 -10.9201 523.489 4.68483 503.122 17.7578V17.7578Z" fill="#FFFEFA"/>
<g style="mix-blend-mode:multiply" opacity="0.84">
<path d="M759.694 25.5555C752.425 51.0492 737.061 73.3586 721.946 95.15C715.081 105.048 707.994 115.177 698.074 122.034C686.618 129.957 672.378 132.815 660.307 139.788C647.075 147.442 637.155 159.603 627.553 171.497C620.936 146.837 640.267 123.425 646.508 98.6699C649.543 86.6328 649.485 73.8669 653.662 62.1751C658.617 48.3157 669.065 37.2089 679.637 26.9654C711.384 -3.64997 747.048 -32.2032 785.823 -53.4671C766.531 -33.7282 766.8 0.627772 759.685 25.5555L759.694 25.5555Z" fill="#156B88"/>
</g>
<path opacity="0.5" d="M832.252 -44.7295C808.648 -32.1361 787.964 -13.1549 778.102 12.1565C761.999 53.4854 780.244 90.5077 792.372 129.17C793.851 133.889 794.504 138.819 795.147 143.72C796.415 153.331 797.682 162.932 798.95 172.542C815.678 151.786 822.985 132.652 831.877 108.52C838.628 90.1816 854.779 77.5116 862.058 58.3674C870.777 35.3963 874.945 8.37751 894.976 -8.14827C900.497 -12.7041 906.893 -16.0707 912.597 -20.3772C919.645 -25.6907 925.551 -32.3471 931.399 -38.9555C939.542 -48.1535 947.685 -57.342 955.828 -66.54C945.985 -64.0271 935.854 -62.6267 925.695 -62.3773C914.786 -62.1088 903.868 -63.1639 892.959 -62.7802C874.494 -62.128 852.456 -55.4909 832.271 -44.7199L832.252 -44.7295Z" fill="#29AFB7"/>
<g style="mix-blend-mode:multiply">
<path d="M860.224 141.034C860.455 140.18 859.149 139.749 858.861 140.698C857.68 144.497 856.268 147.796 854.309 152.189C853.819 153.273 855.337 153.858 855.73 152.966C857.526 148.966 859.168 145.283 860.224 141.044L860.224 141.034ZM862.731 127.424C862.462 128.028 863.316 128.316 863.499 127.846C865.323 123.597 865.986 122.235 867.503 118.351C867.705 117.842 867.023 117.583 866.86 117.996C864.824 122.83 864.565 123.146 862.731 127.424ZM855.778 129.515C856.057 128.911 855.212 128.546 854.952 129.064C853.56 131.836 852.225 134.637 850.871 137.437C850.554 138.099 851.496 138.502 851.774 137.926C854.251 132.795 854.636 131.922 855.769 129.505L855.778 129.515ZM853.627 112.107C854.002 111.167 852.773 110.783 852.465 111.483C850.084 116.854 848.471 119.914 844.255 128.585C843.775 129.563 845.196 130.196 845.619 129.323C849.287 121.794 851.572 117.248 853.627 112.107V112.107ZM866.514 97.6047C866.764 97.0964 866.034 96.7607 865.803 97.2115C863.259 102.103 864.978 98.8804 860.56 107.369C860.292 107.887 861.06 108.28 861.329 107.781C864.93 100.856 863.038 104.501 866.524 97.6047L866.514 97.6047ZM848.557 99.8203C849.066 98.8612 847.654 98.0842 847.107 99.0338C844.514 103.618 843.093 105.987 840.942 109.498C840.376 110.409 841.816 111.407 842.479 110.332C844.111 107.676 846.099 104.463 848.557 99.8107L848.557 99.8203ZM857.814 90.3537C858.179 91.591 858.976 88.5602 863.508 81.0118C863.7 80.7049 863.201 80.3788 862.999 80.7336C862.798 81.0693 857.699 89.9797 857.814 90.3537V90.3537ZM841.528 90.4688C842.133 89.5481 840.673 88.5314 839.963 89.6152C832.213 101.259 833.74 99.1489 829.304 106.697C828.737 107.676 830.255 108.654 830.888 107.56C837.399 96.4346 835.92 99.2257 841.528 90.4688V90.4688ZM855.173 74.0677C855.721 73.0607 854.213 72.1974 853.627 73.2237C852.408 75.3817 851.169 77.5206 849.95 79.669C849.373 80.6569 850.929 81.6257 851.534 80.5323C852.763 78.3838 853.983 76.2354 855.173 74.0677ZM841.23 71.4301C842.027 70.4518 840.645 69.3776 839.953 70.2216C835.546 75.564 832.982 79.5923 829.525 85.654C828.977 86.6227 830.475 87.5531 831.08 86.498C835.2 79.3141 837.601 75.9285 841.24 71.4301L841.23 71.4301ZM862.308 41.9752C862.577 41.534 861.895 41.0833 861.578 41.5725C860.109 43.9511 852.12 56.6595 851.63 57.4268C851.332 57.9159 852.081 58.4243 852.437 57.868C858.179 48.6988 860.637 44.7759 862.308 41.9752V41.9752ZM863.912 60.8797C863.326 61.8964 864.92 62.8459 865.525 61.762C870.403 53.1587 871.19 51.7776 872.295 48.8906C872.564 47.7876 870.989 47.3464 870.624 48.2479C869.654 50.6362 869.548 50.8664 863.902 60.8797L863.912 60.8797ZM848.548 44.7759C849.21 43.9702 848.077 43.0686 847.472 43.7688C845.196 46.4352 844.217 47.4136 838.186 54.0507C837.485 54.818 838.628 55.8539 839.319 55.1153C845.119 48.7371 846.493 47.2792 848.548 44.7855L848.548 44.7759ZM855.596 23.2722C855.356 23.6367 855.951 24.097 856.249 23.6271C859.101 19.3589 862.049 15.2923 865.362 11.2544C865.659 10.8803 865.141 10.4966 864.891 10.8035C861.991 14.2468 859.341 17.6805 855.596 23.2818L855.596 23.2722ZM885.45 8.64549C886.219 7.43699 884.346 5.97914 883.309 7.47538C878.911 13.8632 877.903 14.9087 872.439 23.9341C871.613 25.2864 873.774 26.7922 874.743 25.1905C880.505 15.6471 882.589 13.2493 885.45 8.65509L885.45 8.64549ZM867.734 -3.545C867.33 -2.9983 868.07 -2.52832 868.377 -2.94074C872.276 -8.25431 875.08 -12.0237 877.97 -15.5533C878.335 -16.0041 877.701 -16.4932 877.375 -16.1096C874.187 -12.2922 870.672 -7.56375 867.724 -3.545L867.734 -3.545ZM890.232 34.2543C889.81 35.1559 891.087 35.7121 891.471 34.9256C895.994 25.5645 897.089 23.3777 900.027 17.997C900.43 17.2585 899.326 16.6254 898.894 17.3831C895.562 23.1859 893.651 27.2431 890.232 34.2543V34.2543ZM909.822 -16.9536C910.561 -17.9895 908.871 -19.3994 907.93 -18.3252C904.675 -14.5654 899.874 -9.02167 897.482 -4.66722C896.58 -3.01752 899.086 -1.57877 900.018 -3.28601C902.236 -7.31435 908.285 -14.738 909.822 -16.9536V-16.9536ZM895.725 -20.0612C899.144 -23.6675 902.533 -27.3027 905.942 -30.9186C906.528 -31.542 905.606 -32.4435 904.992 -31.8201C901.516 -28.2713 898.116 -24.6458 894.698 -21.0299C894.054 -20.3585 895.082 -19.3706 895.725 -20.0612V-20.0612ZM926.041 -1.24307C925.522 -0.159258 927.078 0.608045 927.567 -0.408632C930.525 -6.52787 934.328 -14.3352 937.717 -20.1284C938.159 -20.8861 937.036 -21.6629 936.469 -20.7997C932.753 -15.1121 929.113 -7.56373 926.031 -1.24307L926.041 -1.24307ZM936.959 -35.7525C937.727 -36.491 936.594 -37.7476 935.72 -36.9131C930.813 -32.2614 928.201 -29.3552 923.39 -22.6701C922.805 -21.8356 924.149 -20.6367 924.994 -21.7972C930.122 -29.0674 933.934 -32.76 936.968 -35.7429L936.959 -35.7525ZM913.817 30.4178C912.923 31.7702 915.142 33.5732 916.323 31.7797C920.001 26.2359 920.221 24.9412 924.264 18.1985C925.071 16.8461 923.006 15.3786 921.979 16.9516C918.109 22.7351 917.686 24.5767 913.817 30.4082L913.817 30.4178ZM914.892 -1.67475C915.219 -2.25022 914.345 -2.81603 913.961 -2.183C911.944 1.16436 910.869 2.5742 906.509 8.64549C906.134 9.1826 906.999 9.9116 907.517 9.19226C912.069 2.82364 912.943 1.6918 914.892 -1.67475ZM888.197 64.0544C887.544 65.1478 889.253 66.3276 890.031 65.0519C892.662 60.6783 897.3 52.823 900.997 47.1737C901.612 46.2146 900.123 45.0541 899.297 46.253C895.792 51.3172 892.902 56.2759 888.206 64.0544L888.197 64.0544ZM879.343 57.3501C878.892 57.8872 879.67 58.5106 880.073 58.031C884 53.2546 886.968 49.8305 888.821 47.778C889.243 47.2984 888.542 46.6941 888.139 47.1353C885.191 50.3388 882.109 54.0123 879.353 57.3501L879.343 57.3501ZM882.157 69.8668C882.771 68.6679 881.024 67.7951 880.409 68.9172C876.155 76.667 874.523 80.1869 872.506 84.8962C871.853 86.4308 873.937 87.1118 874.436 85.9513C876.846 80.3212 878.21 77.6549 882.166 69.8668L882.157 69.8668ZM875.233 110.524C875.377 111.023 876.078 111.042 876.261 110.63C879.756 102.468 880.399 100.99 882.675 96.4826C882.992 95.8592 882.089 95.4275 881.792 95.9934C881.436 96.6744 875.022 109.776 875.233 110.515L875.233 110.524ZM894.794 84.7907C894.294 85.8746 895.84 86.5268 896.244 85.5773C897.146 83.5056 898.932 79.2278 903.609 71.5356C904.079 70.7396 902.889 69.9531 902.313 70.8355C899.432 75.2091 896.926 79.8225 894.784 84.7907L894.794 84.7907ZM896.234 97.5951C894.65 100.607 893.795 102.688 889.455 112.673C889.195 113.248 890.002 113.555 890.204 113.085C894.352 103.484 895.399 100.981 896.916 97.9596C897.156 97.4896 896.465 97.1635 896.244 97.5951L896.234 97.5951ZM918.157 61.0044C917.715 62.3376 919.885 63.172 920.423 61.5607C921.988 56.8418 922.613 55.0002 925.897 49.1016C926.521 47.989 924.869 46.9148 924.111 48.1233C920.98 53.1395 920.029 55.4606 918.157 60.9948L918.157 61.0044ZM920.308 75.3146C920.586 74.7487 919.78 74.3842 919.52 74.883C916.784 80.0911 915.574 84.081 914.325 88.282C914.143 88.915 915.132 89.2411 915.343 88.5314C916.697 83.8988 917.802 80.3883 920.308 75.3241L920.308 75.3146ZM884.26 131.011C885.085 129.573 882.906 128.067 881.859 129.707C878.805 134.522 877.634 136.747 872.141 147.201C871.219 148.937 873.831 150.27 874.715 148.602C877.048 144.18 879.766 138.828 884.26 131.011V131.011ZM901.016 116.461C900.728 117.133 901.65 117.392 901.842 116.912C905.289 108.404 905.539 107.378 909.457 99.8299C909.726 99.3312 908.967 98.9379 908.708 99.4271C905.184 105.92 903.772 109.575 901.016 116.471L901.016 116.461ZM899.269 130.464C899.451 129.994 898.644 129.697 898.462 130.148C895.725 136.756 892.777 145.427 891.145 150.088C890.953 150.654 891.884 151.076 892.153 150.338C895.245 141.398 896.685 137.14 899.278 130.455L899.269 130.464ZM919.242 116.528C919.626 115.281 917.686 114.505 917.129 116.01C915.17 121.43 912.827 128.335 911.022 133.783C910.571 135.126 912.827 136.133 913.423 134.378C916.073 126.407 917.216 122.983 919.242 116.528ZM935 65.7329C933.204 71.7466 931.917 76.0435 929.987 81.7695C929.651 82.7766 931.284 83.4096 931.697 82.1915C933.531 76.7149 935.009 71.785 936.411 66.0877C936.632 65.1862 935.288 64.7737 935 65.7329V65.7329ZM882.906 154.337C883.309 153.455 882.061 152.937 881.715 153.695C873.361 171.803 872.592 171.832 873.591 172.369C873.927 172.551 874.407 172.436 874.58 172.081C877.154 166.758 880.515 159.747 882.906 154.337ZM905.731 148.467C906 147.777 904.8 147.278 904.502 147.988C902.092 153.771 902.389 153.023 897.127 167.64C896.839 168.484 898.212 169.089 898.596 168.005C903.868 153.359 898.798 166.892 905.721 148.467L905.731 148.467ZM929.296 136.555C926.021 146.664 925.666 148.228 923.534 156.831C923.275 157.848 924.85 158.279 925.109 157.224C927.692 146.885 927.347 148.228 930.775 136.929C931.044 136.018 929.622 135.538 929.296 136.565L929.296 136.555ZM939.494 105.278C938.159 108.75 937.16 111.685 935.653 117.804C935.413 118.763 936.863 119.099 937.093 118.159C938.716 111.56 939.705 108.664 940.761 105.594C941.021 104.846 939.84 104.357 939.494 105.287L939.494 105.278Z" fill="#556EDA"/>
</g>
<g style="mix-blend-mode:multiply">
<path d="M691.314 23.7427C682.768 28.3753 675.095 34.7343 665.935 37.9954C653.048 42.58 638.836 40.518 625.258 42.1677C599.254 45.3232 575.92 62.0504 549.733 62.645C535.752 62.9616 522.126 58.6167 508.816 54.3198C485.703 46.8577 462.589 39.3861 439.476 31.9241C452.401 25.872 461.149 13.5088 472.883 5.38498C481.641 -0.667122 491.839 -4.2158 501.903 -7.69744C515.413 -12.3684 528.934 -17.0394 542.445 -21.7104C560.363 -27.9064 578.983 -34.1886 597.862 -32.3279C611.699 -30.9563 624.758 -25.2687 638.5 -23.1586C651.55 -21.154 665.032 -22.42 677.89 -19.4371C687.128 -17.2983 695.779 -13.0207 705.046 -11.0161C718.845 -8.03319 733.729 -10.383 745.944 -17.471C740.969 -9.54859 735.486 1.23206 726.104 7.38007C715.388 14.4009 702.549 17.6619 691.324 23.7523L691.314 23.7427Z" fill="#F26B55"/>
</g>
<path d="M561.813 41.2657C563.657 40.4312 565.193 38.513 565.558 35.6356C566.768 26.169 551.366 28.5572 554.371 37.5346C555.658 41.3808 559.077 42.5125 561.813 41.2657V41.2657ZM602.135 -0.00566401C603.325 -0.552367 604.324 -1.78957 604.564 -3.65028C605.352 -9.78871 595.365 -8.23489 597.314 -2.42257C598.15 0.0711621 600.368 0.800004 602.135 -0.00566401ZM476.273 24.7015C476.984 24.9892 477.915 24.9125 478.799 24.2699C481.727 22.1407 477.061 18.5248 475.361 21.6803C474.631 23.0327 475.207 24.2699 476.264 24.7015L476.273 24.7015ZM695.117 -1.15656C693.494 -1.53062 692.361 -0.590681 692.207 0.637004C692.102 1.46186 692.438 2.4114 693.369 3.15952C696.423 5.61489 698.9 -0.264563 695.117 -1.14696L695.117 -1.15656ZM656.399 23.8288C658.435 22.7162 659.779 20.3183 658.281 17.8725C657.071 15.8967 654.2 15.1774 652.203 16.3379C650.205 17.5081 649.418 20.3567 650.551 22.3805C651.886 24.7687 654.459 24.8838 656.399 23.8288Z" fill="white"/>
<path opacity="0.84" d="M696.4 176.407C695.392 168.84 700.193 159.68 708.72 155.959C720.589 150.789 733.12 168.168 727.925 178.699C724.843 184.963 715.778 188.473 709.219 187.725C701.134 186.804 697.149 182.047 696.4 176.398L696.4 176.407Z" fill="#F9C300"/>
</g>
</svg>