<svg width="16" height="16" viewBox="0 0 16 16" fill="none" xmlns="http://www.w3.org/2000/svg">
<path d="M10.8572 1.33325H5.14294C4.48652 1.33423 3.85728 1.58709 3.39312 2.03643C2.92896 2.48576 2.66776 3.09491 2.66675 3.73037V14.794C2.66934 14.8933 2.69932 14.9901 2.75358 15.0744C2.80784 15.1587 2.8844 15.2274 2.97532 15.2734C3.06911 15.3193 3.17408 15.3394 3.27885 15.3316C3.38361 15.3238 3.48417 15.2884 3.56961 15.2292L8.00008 12.1424L12.4267 15.2292C12.5244 15.2971 12.6418 15.3332 12.762 15.3324C12.852 15.333 12.9408 15.3128 13.021 15.2734C13.1147 15.2264 13.1932 15.1555 13.2483 15.0684C13.3033 14.9813 13.3328 14.8813 13.3334 14.7792V3.73037C13.3324 3.09491 13.0712 2.48576 12.607 2.03643C12.1429 1.58709 11.5136 1.33423 10.8572 1.33325ZM11.3029 6.30819L9.87437 7.69115L10.1906 9.69366C10.1982 9.74514 10.1902 9.79766 10.1677 9.84487C10.1361 9.90232 10.0824 9.94539 10.0182 9.96473C9.954 9.98406 9.88452 9.9781 9.82484 9.94813L8.00008 9.02616L6.17532 9.94813C6.12694 9.97121 6.07268 9.98018 6.01913 9.97394C5.95256 9.96393 5.89277 9.92885 5.85281 9.87635C5.81285 9.82385 5.79595 9.75818 5.8058 9.69366L6.1258 7.69115L4.69722 6.30819C4.65854 6.27145 4.63315 6.22359 4.62484 6.17174C4.61888 6.13995 4.61961 6.10731 4.62701 6.07579C4.6344 6.04428 4.6483 6.01454 4.66787 5.98836C4.68745 5.96217 4.71228 5.9401 4.7409 5.92344C4.76951 5.90679 4.8013 5.89592 4.83437 5.89146L6.8877 5.58168L7.75627 3.90001C7.77785 3.85922 7.81057 3.82493 7.85087 3.80088C7.89116 3.77682 7.9375 3.76391 7.98484 3.76356C8.03182 3.76332 8.0779 3.77603 8.11769 3.80019C8.15749 3.82435 8.18937 3.85897 8.20961 3.90001L9.08199 5.58168L11.1467 5.89146C11.2003 5.8995 11.2497 5.92408 11.2877 5.96153C11.3125 5.98319 11.3325 6.00939 11.3467 6.03862C11.3609 6.06784 11.3689 6.09951 11.3703 6.13177C11.3717 6.16404 11.3665 6.19625 11.3549 6.22654C11.3434 6.25683 11.3257 6.28459 11.3029 6.30819Z" fill="#00A0A9"/>
</svg>
