<svg width="12" height="12" viewBox="0 0 12 12" fill="none" xmlns="http://www.w3.org/2000/svg">
<path d="M9.74553 1.74269C9.6134 1.74581 9.48788 1.80111 9.3964 1.8965L5.99992 5.29299L2.60344 1.8965C2.55678 1.84855 2.50098 1.81044 2.43934 1.78444C2.37769 1.75844 2.31145 1.74507 2.24455 1.74513C2.14512 1.74526 2.04799 1.77502 1.96556 1.83061C1.88313 1.88621 1.81915 1.96511 1.78178 2.05725C1.74441 2.14938 1.73536 2.25057 1.75578 2.34787C1.77619 2.44518 1.82515 2.53419 1.89641 2.60353L5.29289 6.00002L1.89641 9.3965C1.84842 9.44258 1.81011 9.49776 1.78371 9.55883C1.75732 9.61989 1.74338 9.68561 1.7427 9.75213C1.74202 9.81865 1.75463 9.88463 1.77977 9.94622C1.80492 10.0078 1.8421 10.0638 1.88914 10.1108C1.93618 10.1578 1.99213 10.195 2.05372 10.2202C2.11531 10.2453 2.18129 10.2579 2.24781 10.2572C2.31433 10.2566 2.38005 10.2426 2.44112 10.2162C2.50218 10.1898 2.55736 10.1515 2.60344 10.1035L5.99992 6.70705L9.3964 10.1035C9.44248 10.1515 9.49766 10.1898 9.55873 10.2162C9.61979 10.2426 9.68551 10.2566 9.75203 10.2572C9.81855 10.2579 9.88453 10.2453 9.94612 10.2202C10.0077 10.195 10.0637 10.1578 10.1107 10.1108C10.1577 10.0638 10.1949 10.0078 10.2201 9.94622C10.2452 9.88463 10.2578 9.81865 10.2571 9.75213C10.2565 9.68561 10.2425 9.61989 10.2161 9.55883C10.1897 9.49776 10.1514 9.44258 10.1034 9.3965L6.70695 6.00002L10.1034 2.60353C10.1762 2.53377 10.2262 2.44364 10.2468 2.34497C10.2674 2.24631 10.2578 2.14371 10.2191 2.05063C10.1804 1.95755 10.1145 1.87834 10.0299 1.82339C9.94544 1.76844 9.8463 1.74031 9.74553 1.74269Z" fill="white"/>
</svg>
