<svg width="48" height="48" viewBox="0 0 48 48" fill="none" xmlns="http://www.w3.org/2000/svg">
<path d="M21.6681 0.000180014C21.4272 -0.00319326 21.188 0.0408726 20.9644 0.129817C20.7408 0.218761 20.5373 0.35081 20.3658 0.51829C20.1942 0.685769 20.0579 0.885339 19.9649 1.1054C19.8719 1.32546 19.824 1.56163 19.824 1.80017C19.824 2.03872 19.8719 2.27488 19.9649 2.49495C20.0579 2.71501 20.1942 2.91458 20.3658 3.08206C20.5373 3.24954 20.7408 3.38159 20.9644 3.47053C21.188 3.55947 21.4272 3.60354 21.6681 3.60017H22.1818V5.52438C19.5321 5.8537 17.1068 6.89208 15.0962 8.43999L13.716 7.07359L14.0782 6.71266C14.3407 6.45961 14.5198 6.13398 14.5922 5.77843C14.6645 5.42287 14.6267 5.05397 14.4836 4.72006C14.3406 4.38616 14.099 4.10282 13.7905 3.90716C13.482 3.71151 13.121 3.61268 12.7548 3.6236C12.2826 3.63723 11.8344 3.83224 11.5048 4.16735L8.20942 7.42984C7.86817 7.76737 7.67634 8.22528 7.67612 8.70284C7.67601 8.9393 7.72294 9.17346 7.81424 9.39197C7.90555 9.61047 8.03943 9.80903 8.20824 9.97631C8.37705 10.1436 8.5775 10.2763 8.79812 10.3669C9.01875 10.4575 9.25524 10.5042 9.49409 10.5043C9.97646 10.5045 10.4392 10.315 10.7804 9.97749L11.145 9.61889L12.5252 10.9853C10.9617 12.9758 9.91279 15.3769 9.58015 18.0001H7.63651V17.4915C7.63968 17.2508 7.59405 17.0119 7.50231 16.7889C7.41058 16.566 7.2746 16.3635 7.10243 16.1935C6.93026 16.0235 6.7254 15.8894 6.49996 15.7991C6.27452 15.7089 6.03308 15.6643 5.78994 15.6681C5.30856 15.6755 4.84981 15.8717 4.5143 16.2135C4.17879 16.5553 3.9939 17.0149 4.00018 17.4915V22.1087C3.99677 22.3472 4.04129 22.584 4.13113 22.8054C4.22097 23.0267 4.35435 23.2282 4.52352 23.398C4.69269 23.5679 4.89428 23.7028 5.11656 23.7948C5.33885 23.8869 5.57739 23.9343 5.81835 23.9343C6.0593 23.9343 6.29785 23.8869 6.52013 23.7948C6.74242 23.7028 6.944 23.5679 7.11317 23.398C7.28234 23.2282 7.41572 23.0267 7.50557 22.8054C7.59541 22.584 7.63992 22.3472 7.63651 22.1087V21.6001H9.58015C9.91279 24.2234 10.9617 26.6244 12.5252 28.6149L11.145 29.9813L10.7804 29.6227C10.6115 29.4556 10.4109 29.323 10.1902 29.2326C9.96947 29.1423 9.73293 29.0958 9.49408 29.0959C9.25522 29.096 9.01873 29.1427 8.7981 29.2333C8.57747 29.3239 8.37703 29.4566 8.20821 29.6239C8.03939 29.7912 7.90551 29.9897 7.81421 30.2082C7.72291 30.4267 7.67597 30.6609 7.67608 30.8974C7.6762 31.1338 7.72335 31.368 7.81487 31.5864C7.90638 31.8048 8.04045 32.0032 8.20942 32.1704L11.5048 35.4329C11.6737 35.6001 11.8741 35.7329 12.0947 35.8235C12.3154 35.9141 12.5519 35.9608 12.7907 35.9609C13.0296 35.961 13.2661 35.9145 13.4868 35.8241C13.7075 35.7337 13.9081 35.6012 14.0771 35.4341C14.246 35.2669 14.3801 35.0685 14.4716 34.8501C14.5631 34.6316 14.6103 34.3975 14.6104 34.161C14.6105 33.9246 14.5635 33.6904 14.4722 33.4719C14.3809 33.2534 14.247 33.0548 14.0782 32.8876L13.716 32.5266L15.0962 31.1602C17.1068 32.7081 19.5321 33.7465 22.1818 34.0758V36H21.6681C21.4272 35.9967 21.188 36.0407 20.9644 36.1297C20.7408 36.2186 20.5373 36.3507 20.3658 36.5182C20.1942 36.6856 20.0579 36.8852 19.9649 37.1053C19.8719 37.3253 19.824 37.5615 19.824 37.8C19.824 38.0386 19.8719 38.2747 19.9649 38.4948C20.0579 38.7149 20.1942 38.9144 20.3658 39.0819C20.5373 39.2494 20.7408 39.3814 20.9644 39.4704C21.188 39.5593 21.4272 39.6034 21.6681 39.6H26.3319C26.5728 39.6034 26.812 39.5593 27.0356 39.4704C27.2592 39.3814 27.4627 39.2494 27.6342 39.0819C27.8058 38.9144 27.9421 38.7149 28.0351 38.4948C28.1281 38.2747 28.176 38.0386 28.176 37.8C28.176 37.5615 28.1281 37.3253 28.0351 37.1053C27.9421 36.8852 27.8058 36.6856 27.6342 36.5182C27.4627 36.3507 27.2592 36.2186 27.0356 36.1297C26.812 36.0407 26.5728 35.9967 26.3319 36H25.8182V34.0758C28.4679 33.7465 30.8932 32.7081 32.9038 31.1602L34.284 32.5266L33.9218 32.8876C33.753 33.0548 33.6191 33.2534 33.5278 33.4719C33.4365 33.6904 33.3895 33.9246 33.3896 34.161C33.3897 34.3975 33.4369 34.6316 33.5284 34.8501C33.6199 35.0685 33.754 35.2669 33.9229 35.4341C34.0919 35.6012 34.2925 35.7337 34.5132 35.8241C34.7339 35.9145 34.9704 35.961 35.2093 35.9609C35.4481 35.9608 35.6846 35.9141 35.9053 35.8235C36.1259 35.7329 36.3263 35.6001 36.4952 35.4329L39.7906 32.1704C39.9596 32.0032 40.0936 31.8048 40.1851 31.5864C40.2766 31.368 40.3238 31.1338 40.3239 30.8974C40.324 30.6609 40.2771 30.4267 40.1858 30.2082C40.0945 29.9897 39.9606 29.7912 39.7918 29.6239C39.623 29.4566 39.4225 29.3239 39.2019 29.2333C38.9813 29.1427 38.7448 29.096 38.5059 29.0959C38.2671 29.0958 38.0305 29.1423 37.8098 29.2326C37.5891 29.323 37.3885 29.4556 37.2196 29.6227L36.855 29.9813L35.4748 28.6149C37.0383 26.6244 38.0872 24.2234 38.4198 21.6001H40.3635V22.1087C40.3601 22.3472 40.4046 22.584 40.4944 22.8054C40.5843 23.0267 40.7177 23.2282 40.8868 23.398C41.056 23.5679 41.2576 23.7028 41.4799 23.7948C41.7021 23.8869 41.9407 23.9343 42.1817 23.9343C42.4226 23.9343 42.6612 23.8869 42.8834 23.7948C43.1057 23.7028 43.3073 23.5679 43.4765 23.398C43.6456 23.2282 43.779 23.0267 43.8689 22.8054C43.9587 22.584 44.0032 22.3472 43.9998 22.1087V17.4915C44.003 17.2508 43.9574 17.0119 43.8656 16.7889C43.7739 16.566 43.6379 16.3635 43.4657 16.1935C43.2936 16.0235 43.0887 15.8894 42.8633 15.7991C42.6378 15.7089 42.3964 15.6643 42.1532 15.6681C41.6719 15.6755 41.2131 15.8717 40.8776 16.2135C40.5421 16.5553 40.3572 17.0149 40.3635 17.4915V18.0001H38.4198C38.0872 15.3769 37.0383 12.9758 35.4748 10.9853L36.855 9.61889L37.2196 9.97749C37.5608 10.315 38.0235 10.5045 38.5059 10.5043C38.9883 10.5041 39.4508 10.3142 39.7918 9.97631C40.1327 9.63848 40.3241 9.18039 40.3239 8.70284C40.3237 8.22528 40.1318 7.76737 39.7906 7.42984L36.4952 4.16735C36.3252 3.99471 36.122 3.85762 35.8975 3.76422C35.673 3.67081 35.4318 3.623 35.1883 3.6236C34.827 3.62417 34.474 3.73131 34.1744 3.93134C33.8749 4.13138 33.6423 4.41524 33.5064 4.74671C33.3705 5.07817 33.3374 5.44221 33.4114 5.79237C33.4854 6.14252 33.6631 6.46291 33.9218 6.71266L34.284 7.07359L32.9038 8.43999C30.8932 6.89208 28.4679 5.8537 25.8182 5.52438V3.60017H26.3319C26.5728 3.60354 26.812 3.55947 27.0356 3.47053C27.2592 3.38159 27.4627 3.24954 27.6342 3.08206C27.8058 2.91458 27.9421 2.71501 28.0351 2.49495C28.1281 2.27488 28.176 2.03872 28.176 1.80017C28.176 1.56163 28.1281 1.32546 28.0351 1.1054C27.9421 0.885339 27.8058 0.685769 27.6342 0.51829C27.4627 0.35081 27.2592 0.218761 27.0356 0.129817C26.812 0.0408726 26.5728 -0.00319326 26.3319 0.000180014H21.6681ZM24 10.8001C25.3394 10.8001 26.4242 11.8741 26.4242 13.2001C26.4242 14.5261 25.3394 15.6001 24 15.6001C22.6606 15.6001 21.5758 14.5261 21.5758 13.2001C21.5758 11.8741 22.6606 10.8001 24 10.8001ZM17.3334 17.4001C18.6728 17.4001 19.7576 18.4741 19.7576 19.8001C19.7576 21.1261 18.6728 22.2001 17.3334 22.2001C15.994 22.2001 14.9092 21.1261 14.9092 19.8001C14.9092 18.4741 15.994 17.4001 17.3334 17.4001ZM30.6666 17.4001C32.006 17.4001 33.0908 18.4741 33.0908 19.8001C33.0908 21.1261 32.006 22.2001 30.6666 22.2001C29.3272 22.2001 28.2424 21.1261 28.2424 19.8001C28.2424 18.4741 29.3272 17.4001 30.6666 17.4001ZM24 24.0001C25.3394 24.0001 26.4242 25.0741 26.4242 26.4001C26.4242 27.7261 25.3394 28.8001 24 28.8001C22.6606 28.8001 21.5758 27.7261 21.5758 26.4001C21.5758 25.0741 22.6606 24.0001 24 24.0001ZM7.7028 42C6.32948 42 5.21229 43.3453 5.21229 44.9977C5.21229 46.6501 6.32948 47.9953 7.7028 47.9953C8.79855 47.9953 9.45441 47.2602 9.66774 46.8258C9.85077 46.4538 9.69549 46.0051 9.31974 45.8227C8.94398 45.6415 8.49188 45.7964 8.30886 46.1672C8.30764 46.1708 8.12583 46.4953 7.7028 46.4953C7.18159 46.4953 6.72506 45.7957 6.72506 44.9977C6.72506 44.1997 7.18159 43.4977 7.7028 43.4977C8.09916 43.4977 8.27844 43.7787 8.31359 43.8399C8.50025 44.2035 8.94883 44.3527 9.31974 44.1727C9.69549 43.9915 9.85198 43.5415 9.66774 43.1695C9.4532 42.7351 8.79734 42 7.7028 42ZM13.1762 42C11.7156 42 10.5271 43.3453 10.5271 44.9977C10.5271 46.6501 11.7156 47.9953 13.1762 47.9953C14.6368 47.9953 15.8241 46.6501 15.8254 44.9977C15.8254 43.3453 14.6368 42 13.1762 42ZM17.3429 42C17.2444 41.9995 17.1436 42.0187 17.0469 42.0586C16.6615 42.2182 16.4785 42.6567 16.6397 43.0383L18.5313 47.5336C18.6489 47.812 18.9242 47.9953 19.2297 47.9953C19.5351 47.9953 19.8116 47.812 19.9304 47.5336L21.822 43.0383C21.9832 42.6555 21.8002 42.2182 21.4148 42.0586C21.0269 41.899 20.5852 42.0801 20.4252 42.4617L19.232 45.2953L18.0365 42.4617C17.9165 42.1755 17.6383 42.0015 17.3429 42ZM26.5734 42C26.1564 42 25.8193 42.336 25.8205 42.75V47.2453C25.8205 47.6581 26.1576 47.9953 26.5757 47.9953H27.3309C29 47.9953 30.3601 46.6501 30.3588 44.9977C30.3588 43.3453 29 42 27.3309 42H26.5734ZM23.8509 42.0024C23.4339 42.0024 23.0933 42.336 23.0933 42.75V47.2453C23.0933 47.6581 23.4327 47.9953 23.8509 47.9953C24.2678 47.9953 24.6061 47.6581 24.6061 47.2453V42.75C24.6061 42.336 24.2678 42.0024 23.8509 42.0024ZM39.2887 42.0071C38.0366 42.0071 37.0183 43.0151 37.0183 44.2547C37.0183 45.3126 37.7628 46.1941 38.7584 46.432C38.6351 46.4695 38.5176 46.4988 38.4625 46.5047C38.0503 46.5431 37.7443 46.9029 37.7783 47.3133C37.811 47.7045 38.142 48 38.5311 48C38.5517 48 38.5733 47.9977 38.5927 47.9953C39.6178 47.9113 41.5578 47.0211 41.559 44.2547V44.2524V44.25C41.5564 43.0126 40.5392 42.0071 39.2887 42.0071ZM34.9161 42.0235C34.8047 42.0001 34.6873 41.9999 34.5752 42.0281L33.0624 42.4031C32.6576 42.5027 32.409 42.9105 32.5108 43.3125C32.6114 43.7133 33.0257 43.9571 33.4294 43.8563L34.0023 43.7156V47.2523C34.0023 47.6651 34.3417 48 34.7598 48C35.1768 48 35.5162 47.6639 35.5174 47.2523V42.757C35.5174 42.5266 35.4105 42.308 35.2262 42.1664C35.1341 42.095 35.0275 42.0469 34.9161 42.0235ZM13.1762 43.4977C13.7908 43.4977 14.3126 44.1853 14.3126 44.9977C14.3126 45.8101 13.792 46.4953 13.1762 46.4953C12.5605 46.4953 12.0399 45.8101 12.0399 44.9977C12.0399 44.1853 12.5605 43.4977 13.1762 43.4977ZM27.3309 43.4977C28.1661 43.4977 28.8461 44.1709 28.8461 44.9977C28.8461 45.8245 28.1661 46.4953 27.3309 46.4953V43.4977ZM39.2887 43.5047C39.7057 43.5047 40.0463 43.8396 40.0463 44.2524C40.0463 44.6652 39.7057 45.0024 39.2887 45.0024C38.8717 45.0024 38.5335 44.6652 38.5335 44.2524C38.5335 43.8396 38.8717 43.5047 39.2887 43.5047Z" fill="#423EAF"/>
</svg>
