<svg width="18" height="18" fill="none" xmlns="http://www.w3.org/2000/svg"><path fill-rule="evenodd" clip-rule="evenodd" d="M2.25 3.848c0-.881.681-1.598 1.519-1.598H14.23c.838 0 1.519.717 1.519 1.598v7.457c0 .88-.681 1.597-1.519 1.597h-2.868v1.776h1.18a.485.485 0 0 1 .363.153.535.535 0 0 1 .151.38.557.557 0 0 1-.15.379.505.505 0 0 1-.363.153h-1.607a.486.486 0 0 1-.164 0H7.225a.486.486 0 0 1-.164 0H5.456a.485.485 0 0 1-.362-.153.534.534 0 0 1-.151-.38.556.556 0 0 1 .15-.379.505.505 0 0 1 .363-.153h1.181v-1.776H3.77c-.838 0-1.519-.717-1.519-1.597V3.848Zm8.1 9.054h-2.7v1.776h2.7v-1.776Zm-1.51-2.31c.605 0 1.102-.178 1.49-.534.387-.355.627-.817.72-1.384H9.975c-.073.268-.165.47-.276.604-.2.25-.49.374-.872.374a1.15 1.15 0 0 1-.921-.434c-.24-.292-.36-.73-.36-1.314 0-.584.114-1.035.342-1.353.228-.32.54-.48.936-.48.388 0 .681.113.879.34.11.126.201.315.272.564h1.088c-.017-.325-.137-.648-.36-.97-.406-.575-1.046-.863-1.922-.863-.654 0-1.193.215-1.617.643-.487.492-.731 1.193-.731 2.101 0 .84.214 1.502.643 1.985.428.48 1.017.72 1.765.72Z" fill="#333"/></svg>