<svg width="48" height="48" viewBox="0 0 48 48" fill="none" xmlns="http://www.w3.org/2000/svg">
<path d="M21.2 44.8004L3.2 26.8004C1.6 25.2004 1.6 22.7004 3.2 21.1004L21.2 3.10039C22.8 1.50039 25.3 1.50039 26.9 3.10039L44.9 21.1004C46.5 22.7004 46.5 25.2004 44.9 26.8004L26.9 44.8004C25.3 46.4004 22.7 46.4004 21.2 44.8004Z" fill="#EA0C42"/>
<path d="M21.6001 32.7C21.6001 32.4 21.7001 32.1 21.8001 31.8C21.9001 31.5 22.1001 31.3 22.3001 31.1C22.5001 30.9 22.8001 30.7 23.1001 30.6C23.4001 30.5 23.7001 30.4 24.1001 30.4C24.5001 30.4 24.8001 30.5 25.1001 30.6C25.4001 30.7 25.7001 30.9 25.9001 31.1C26.1001 31.3 26.3001 31.5 26.4001 31.8C26.5001 32.1 26.6001 32.4 26.6001 32.7C26.6001 33 26.5001 33.3 26.4001 33.6C26.3001 33.9 26.1001 34.1 25.9001 34.3C25.7001 34.5 25.4001 34.7 25.1001 34.8C24.8001 34.9 24.5001 35 24.1001 35C23.7001 35 23.4001 34.9 23.1001 34.8C22.8001 34.7 22.6001 34.5 22.3001 34.3C22.1001 34.1 21.9001 33.9 21.8001 33.6C21.7001 33.3 21.6001 33.1 21.6001 32.7ZM25.8001 28.1H22.2001L21.7001 13H26.3001L25.8001 28.1Z" fill="white"/>
</svg>
