<svg width="20" height="20" viewBox="0 0 20 20" fill="none" xmlns="http://www.w3.org/2000/svg">
<path d="M10.0001 1.66675C8.62683 1.66675 7.50011 2.79347 7.50011 4.16675H4.89432C4.85723 4.16039 4.81964 4.15739 4.78201 4.1578C4.75172 4.15859 4.72153 4.16158 4.69168 4.16675H3.12511C3.04229 4.16558 2.96007 4.18088 2.88321 4.21176C2.80636 4.24264 2.7364 4.2885 2.67742 4.34665C2.61844 4.4048 2.57161 4.4741 2.53964 4.55051C2.50767 4.62692 2.49121 4.70892 2.49121 4.79175C2.49121 4.87458 2.50767 4.95658 2.53964 5.03299C2.57161 5.1094 2.61844 5.1787 2.67742 5.23685C2.7364 5.295 2.80636 5.34085 2.88321 5.37174C2.96007 5.40262 3.04229 5.41792 3.12511 5.41675H4.16678V16.0417C4.16678 17.3 5.20021 18.3334 6.45845 18.3334H13.5418C14.8 18.3334 15.8334 17.3 15.8334 16.0417V5.41675H16.8751C16.9579 5.41792 17.0402 5.40262 17.117 5.37174C17.1939 5.34085 17.2638 5.295 17.3228 5.23685C17.3818 5.1787 17.4286 5.1094 17.4606 5.03299C17.4925 4.95658 17.509 4.87458 17.509 4.79175C17.509 4.70892 17.4925 4.62692 17.4606 4.55051C17.4286 4.4741 17.3818 4.4048 17.3228 4.34665C17.2638 4.2885 17.1939 4.24264 17.117 4.21176C17.0402 4.18088 16.9579 4.16558 16.8751 4.16675H15.311C15.2439 4.15573 15.1754 4.15573 15.1083 4.16675H12.5001C12.5001 2.79347 11.3734 1.66675 10.0001 1.66675ZM10.0001 2.91675C10.6977 2.91675 11.2501 3.46919 11.2501 4.16675H8.75011C8.75011 3.46919 9.30256 2.91675 10.0001 2.91675ZM5.41678 5.41675H14.5834V16.0417C14.5834 16.6243 14.1244 17.0834 13.5418 17.0834H6.45845C5.87585 17.0834 5.41678 16.6243 5.41678 16.0417V5.41675ZM8.53201 7.49113C8.36639 7.49372 8.20857 7.56194 8.09322 7.6808C7.97786 7.79967 7.9144 7.95946 7.91678 8.12508V14.3751C7.91561 14.4579 7.93091 14.5401 7.96179 14.617C7.99268 14.6938 8.03853 14.7638 8.09668 14.8228C8.15483 14.8818 8.22413 14.9286 8.30054 14.9606C8.37695 14.9925 8.45895 15.009 8.54178 15.009C8.62461 15.009 8.70661 14.9925 8.78302 14.9606C8.85943 14.9286 8.92873 14.8818 8.98688 14.8228C9.04503 14.7638 9.09088 14.6938 9.12176 14.617C9.15265 14.5401 9.16795 14.4579 9.16678 14.3751V8.12508C9.16798 8.04143 9.15237 7.95839 9.12089 7.88088C9.0894 7.80337 9.04268 7.73297 8.98348 7.67385C8.92429 7.61473 8.85383 7.56809 8.77628 7.53671C8.69873 7.50532 8.61566 7.48982 8.53201 7.49113ZM11.4487 7.49113C11.2831 7.49372 11.1252 7.56194 11.0099 7.6808C10.8945 7.79967 10.8311 7.95946 10.8334 8.12508V14.3751C10.8323 14.4579 10.8476 14.5401 10.8785 14.617C10.9093 14.6938 10.9552 14.7638 11.0133 14.8228C11.0715 14.8818 11.1408 14.9286 11.2172 14.9606C11.2936 14.9925 11.3756 15.009 11.4584 15.009C11.5413 15.009 11.6233 14.9925 11.6997 14.9606C11.7761 14.9286 11.8454 14.8818 11.9035 14.8228C11.9617 14.7638 12.0075 14.6938 12.0384 14.617C12.0693 14.5401 12.0846 14.4579 12.0834 14.3751V8.12508C12.0846 8.04143 12.069 7.95839 12.0376 7.88088C12.0061 7.80337 11.9593 7.73297 11.9001 7.67385C11.841 7.61473 11.7705 7.56809 11.6929 7.53671C11.6154 7.50532 11.5323 7.48982 11.4487 7.49113Z" fill="#00A0A9"/>
</svg>
