<svg width="20" height="20" viewBox="0 0 20 20" fill="none" xmlns="http://www.w3.org/2000/svg">
<path d="M10.0001 1.6665C8.62683 1.6665 7.50011 2.79323 7.50011 4.1665H4.89432C4.85723 4.16015 4.81964 4.15715 4.78201 4.15755C4.75172 4.15834 4.72153 4.16133 4.69168 4.1665H3.12511C3.04229 4.16533 2.96007 4.18063 2.88321 4.21152C2.80636 4.2424 2.7364 4.28825 2.67742 4.3464C2.61844 4.40456 2.57161 4.47385 2.53964 4.55026C2.50767 4.62667 2.49121 4.70868 2.49121 4.7915C2.49121 4.87433 2.50767 4.95633 2.53964 5.03275C2.57161 5.10916 2.61844 5.17845 2.67742 5.2366C2.7364 5.29476 2.80636 5.34061 2.88321 5.37149C2.96007 5.40237 3.04229 5.41768 3.12511 5.4165H4.16678V16.0415C4.16678 17.2997 5.20021 18.3332 6.45845 18.3332H13.5418C14.8 18.3332 15.8334 17.2997 15.8334 16.0415V5.4165H16.8751C16.9579 5.41768 17.0402 5.40237 17.117 5.37149C17.1939 5.34061 17.2638 5.29476 17.3228 5.2366C17.3818 5.17845 17.4286 5.10916 17.4606 5.03275C17.4925 4.95633 17.509 4.87433 17.509 4.7915C17.509 4.70868 17.4925 4.62667 17.4606 4.55026C17.4286 4.47385 17.3818 4.40456 17.3228 4.3464C17.2638 4.28825 17.1939 4.2424 17.117 4.21152C17.0402 4.18063 16.9579 4.16533 16.8751 4.1665H15.311C15.2439 4.15548 15.1754 4.15548 15.1083 4.1665H12.5001C12.5001 2.79323 11.3734 1.6665 10.0001 1.6665ZM10.0001 2.9165C10.6977 2.9165 11.2501 3.46895 11.2501 4.1665H8.75011C8.75011 3.46895 9.30256 2.9165 10.0001 2.9165ZM5.41678 5.4165H14.5834V16.0415C14.5834 16.6241 14.1244 17.0832 13.5418 17.0832H6.45845C5.87585 17.0832 5.41678 16.6241 5.41678 16.0415V5.4165ZM8.53201 7.49089C8.36639 7.49347 8.20857 7.56169 8.09322 7.68056C7.97786 7.79942 7.9144 7.95922 7.91678 8.12484V14.3748C7.91561 14.4577 7.93091 14.5399 7.96179 14.6167C7.99268 14.6936 8.03853 14.7635 8.09668 14.8225C8.15483 14.8815 8.22413 14.9283 8.30054 14.9603C8.37695 14.9923 8.45895 15.0087 8.54178 15.0087C8.62461 15.0087 8.70661 14.9923 8.78302 14.9603C8.85943 14.9283 8.92873 14.8815 8.98688 14.8225C9.04503 14.7635 9.09088 14.6936 9.12176 14.6167C9.15265 14.5399 9.16795 14.4577 9.16678 14.3748V8.12484C9.16798 8.04119 9.15237 7.95814 9.12089 7.88063C9.0894 7.80312 9.04268 7.73272 8.98348 7.6736C8.92429 7.61448 8.85383 7.56785 8.77628 7.53646C8.69873 7.50508 8.61566 7.48958 8.53201 7.49089ZM11.4487 7.49089C11.2831 7.49347 11.1252 7.56169 11.0099 7.68056C10.8945 7.79942 10.8311 7.95922 10.8334 8.12484V14.3748C10.8323 14.4577 10.8476 14.5399 10.8785 14.6167C10.9093 14.6936 10.9552 14.7635 11.0133 14.8225C11.0715 14.8815 11.1408 14.9283 11.2172 14.9603C11.2936 14.9923 11.3756 15.0087 11.4584 15.0087C11.5413 15.0087 11.6233 14.9923 11.6997 14.9603C11.7761 14.9283 11.8454 14.8815 11.9035 14.8225C11.9617 14.7635 12.0075 14.6936 12.0384 14.6167C12.0693 14.5399 12.0846 14.4577 12.0834 14.3748V8.12484C12.0846 8.04119 12.069 7.95814 12.0376 7.88063C12.0061 7.80312 11.9593 7.73272 11.9001 7.6736C11.841 7.61448 11.7705 7.56785 11.6929 7.53646C11.6154 7.50508 11.5323 7.48958 11.4487 7.49089Z" fill="#EA0C42"/>
</svg>
