<svg width="20" height="20" viewBox="0 0 20 20" fill="none" xmlns="http://www.w3.org/2000/svg">
<path d="M10.6539 1C10.1003 1 9.56936 1.21882 9.17789 1.60832C8.78642 1.99782 8.5665 2.52609 8.5665 3.07692C8.5665 3.62776 8.78642 4.15603 9.17789 4.54553C9.56936 4.93503 10.1003 5.15385 10.6539 5.15385C11.2076 5.15385 11.7385 4.93503 12.13 4.54553C12.5214 4.15603 12.7414 3.62776 12.7414 3.07692C12.7414 2.52609 12.5214 1.99782 12.13 1.60832C11.7385 1.21882 11.2076 1 10.6539 1ZM10.306 6.53846C10.0292 6.53849 9.76377 6.64791 9.56804 6.84265C9.37231 7.03739 9.26234 7.30151 9.26231 7.57692V12.4231C9.26234 12.6985 9.37231 12.9626 9.56804 13.1573C9.76377 13.3521 10.0292 13.4615 10.306 13.4615H14.133V16.5769C14.131 16.7145 14.1566 16.8512 14.2082 16.9789C14.2597 17.1066 14.3363 17.2228 14.4334 17.3208C14.5305 17.4188 14.6462 17.4966 14.7739 17.5497C14.9015 17.6028 15.0384 17.6302 15.1767 17.6302C15.315 17.6302 15.452 17.6028 15.5796 17.5497C15.7072 17.4966 15.8229 17.4188 15.92 17.3208C16.0171 17.2228 16.0937 17.1066 16.1453 16.9789C16.1968 16.8512 16.2224 16.7145 16.2204 16.5769V12.4231C16.2204 12.1477 16.1104 11.8835 15.9147 11.6888C15.719 11.4941 15.4535 11.3846 15.1767 11.3846H11.3497V8.61538H15.1767C15.315 8.61733 15.4523 8.59191 15.5807 8.54059C15.709 8.48928 15.8258 8.4131 15.9243 8.31647C16.0228 8.21985 16.101 8.10471 16.1544 7.97776C16.2078 7.8508 16.2353 7.71455 16.2353 7.57692C16.2353 7.4393 16.2078 7.30305 16.1544 7.17609C16.101 7.04913 16.0228 6.934 15.9243 6.83737C15.8258 6.74075 15.709 6.66457 15.5807 6.61325C15.4523 6.56194 15.315 6.53652 15.1767 6.53846H10.306ZM6.85686 8.8466C6.72798 8.84485 6.59989 8.86685 6.47906 8.91151C4.44931 9.62571 3 11.5568 3 13.8077C3 16.6631 5.34871 19 8.21859 19C9.77029 19 11.1774 18.3196 12.1325 17.2422C12.2253 17.1402 12.2968 17.021 12.3429 16.8913C12.389 16.7616 12.4087 16.6242 12.401 16.4868C12.3932 16.3495 12.3582 16.2151 12.2978 16.0914C12.2374 15.9677 12.1529 15.8571 12.0492 15.7661C11.9456 15.6752 11.8248 15.6056 11.6939 15.5615C11.5629 15.5173 11.4245 15.4995 11.2866 15.509C11.1487 15.5185 11.0141 15.5552 10.8906 15.6169C10.767 15.6786 10.657 15.7641 10.567 15.8684C9.9927 16.5162 9.16068 16.9231 8.21859 16.9231C6.47663 16.9231 5.08744 15.5409 5.08744 13.8077C5.08744 12.442 5.96214 11.2962 7.17487 10.8694C7.40836 10.7913 7.60655 10.6335 7.73439 10.424C7.86222 10.2145 7.91145 9.96673 7.87338 9.72457C7.83531 9.48241 7.71239 9.26145 7.52636 9.10078C7.34033 8.9401 7.10318 8.85007 6.85686 8.8466Z" fill="#ff6600"/>
</svg>
