<svg width="14" height="14" viewBox="0 0 14 14" fill="none" xmlns="http://www.w3.org/2000/svg">
<path d="M6.7085 2.26247C6.7085 1.34049 5.91934 0.583252 4.9585 0.583252C3.99766 0.583252 3.2085 1.34049 3.2085 2.26247C3.2085 3.18426 3.99766 3.9417 4.9585 3.9417C5.91934 3.9417 6.7085 3.18426 6.7085 2.26247ZM6.7085 12.029C6.7085 11.107 5.91934 10.3498 4.9585 10.3498C3.99766 10.3498 3.2085 11.107 3.2085 12.029C3.2085 12.9508 3.99766 13.7083 4.9585 13.7083C5.91934 13.7083 6.7085 12.9508 6.7085 12.029ZM6.70787 7.14575C6.70787 6.22391 5.91885 5.46713 4.9585 5.46713C3.998 5.46713 3.20912 6.2241 3.20912 7.14575C3.20912 8.0674 3.998 8.82438 4.9585 8.82438C5.91899 8.82438 6.70787 8.0674 6.70787 7.14575Z" fill="#00A0A9"/>
<path d="M10.7915 2.26247C10.7915 1.34049 10.0023 0.583252 9.0415 0.583252C8.08066 0.583252 7.2915 1.34049 7.2915 2.26247C7.2915 3.18426 8.08066 3.9417 9.0415 3.9417C10.0023 3.9417 10.7915 3.18426 10.7915 2.26247ZM10.7915 12.029C10.7915 11.107 10.0023 10.3498 9.0415 10.3498C8.08066 10.3498 7.2915 11.107 7.2915 12.029C7.2915 12.9508 8.08066 13.7083 9.0415 13.7083C10.0023 13.7083 10.7915 12.9508 10.7915 12.029ZM10.7909 7.14575C10.7909 6.22391 10.0019 5.46713 9.0415 5.46713C8.08101 5.46713 7.29213 6.2241 7.29213 7.14575C7.29213 8.0674 8.08101 8.82438 9.0415 8.82438C10.002 8.82438 10.7909 8.0674 10.7909 7.14575Z" fill="#00A0A9"/>
</svg>
