<svg width="20" height="20" fill="none" xmlns="http://www.w3.org/2000/svg"><path d="M10 1.667a2.926 2.926 0 0 0-2.883 2.5H2.708a.625.625 0 1 0 0 1.25h.89l1.05 10.845a2.284 2.284 0 0 0 2.282 2.071h6.14c1.186 0 2.167-.89 2.282-2.07l1.05-10.846h.89a.625.625 0 1 0 0-1.25h-4.409A2.926 2.926 0 0 0 10 1.667Zm0 1.25c.783 0 1.425.528 1.609 1.25H8.39A1.651 1.651 0 0 1 10 2.917ZM8.125 7.5c.345 0 .625.28.625.625v6.25a.625.625 0 1 1-1.25 0v-6.25c0-.345.28-.625.625-.625Zm3.75 0c.345 0 .625.28.625.625v6.25a.625.625 0 1 1-1.25 0v-6.25c0-.345.28-.625.625-.625Z" fill="#D5D5D7"/></svg>