<svg width="16" height="16" viewBox="0 0 16 16" fill="none" xmlns="http://www.w3.org/2000/svg">
<path d="M8.00328 1.66676C7.90983 1.66617 7.81809 1.69179 7.73846 1.74069C7.65883 1.7896 7.5945 1.85984 7.55276 1.94345L5.83531 5.37835L1.75718 6.00595C1.6659 6.02006 1.58031 6.05917 1.5099 6.11895C1.43949 6.17873 1.38701 6.25685 1.35829 6.34464C1.32957 6.43242 1.32572 6.52645 1.34717 6.61629C1.36863 6.70613 1.41455 6.78827 1.47984 6.85361L4.3008 9.67457L3.67255 13.7573C3.65849 13.8486 3.67003 13.942 3.70587 14.0272C3.74171 14.1124 3.80045 14.186 3.87558 14.2398C3.95071 14.2936 4.03928 14.3256 4.13147 14.3321C4.22366 14.3386 4.31585 14.3195 4.39781 14.2768L8.00002 12.3972L11.6022 14.2768C11.6842 14.3195 11.7764 14.3386 11.8686 14.3321C11.9608 14.3256 12.0493 14.2936 12.1245 14.2398C12.1996 14.186 12.2583 14.1124 12.2942 14.0272C12.33 13.942 12.3416 13.8486 12.3275 13.7573L11.6992 9.67457L14.5202 6.85361C14.5855 6.78827 14.6314 6.70613 14.6529 6.61629C14.6743 6.52645 14.6705 6.43242 14.6418 6.34464C14.613 6.25685 14.5606 6.17873 14.4901 6.11895C14.4197 6.05917 14.3341 6.02006 14.2429 6.00595L10.1647 5.37835L8.44729 1.94345C8.40604 1.86083 8.34273 1.79124 8.26436 1.74241C8.18598 1.69357 8.09562 1.66738 8.00328 1.66676Z" fill="#00A0A9"/>
</svg>
