<svg fill="none" height="34" viewBox="0 0 34 34" width="34" xmlns="http://www.w3.org/2000/svg" xmlns:xlink="http://www.w3.org/1999/xlink"><radialGradient id="a" cx="11.9043" cy="11.8296" gradientUnits="userSpaceOnUse" r="16.631"><stop offset="0" stop-color="#ffa0b7"/><stop offset=".126" stop-color="#fc577f"/><stop offset=".714" stop-color="#ef416b"/><stop offset="1" stop-color="#f41a4f"/></radialGradient><linearGradient id="b" gradientUnits="userSpaceOnUse" x1="17.1587" x2="16.6274" y1="7.4337" y2="27.2089"><stop offset=".147" stop-color="#f4523d" stop-opacity="0"/><stop offset=".845" stop-color="#ea0c42"/></linearGradient><radialGradient id="c" cx="0" cy="0" gradientTransform="matrix(4.42782961 -3.04793293 2.05182327 2.98074927 10.7353 10.9199)" gradientUnits="userSpaceOnUse" r="1"><stop offset=".129" stop-color="#f9a29b"/><stop offset=".834" stop-color="#f9a29b" stop-opacity="0"/></radialGradient><path d="m23.0839 6.04395c-3.6217 0-6.0839 2.43383-6.0839 2.43383s-2.4487-2.43383-6.0839-2.43383c-4.03179 0-7.30074 3.26895-7.30074 7.30075 0 7.3008 13.38464 14.6016 13.38464 14.6016s13.3847-7.3008 13.3847-14.6016c0-4.0325-3.2683-7.30075-7.3008-7.30075z" fill="url(#a)"/><path d="m23.0839 6.04395c-3.6217 0-6.0839 2.43383-6.0839 2.43383s-2.4487-2.43383-6.0839-2.43383c-4.03179 0-7.30074 3.26895-7.30074 7.30075 0 7.3008 13.38464 14.6016 13.38464 14.6016s13.3847-7.3008 13.3847-14.6016c0-4.0325-3.2683-7.30075-7.3008-7.30075z" fill="url(#b)"/><path d="m14.9912 8.46369c.8974 1.55481-.2798 3.91571-2.6308 5.27281-2.3509 1.3572-4.98379 1.1971-5.88125-.3584s.27979-3.91566 2.63075-5.27282c2.351-1.35717 4.9838-1.19709 5.8813.35841z" fill="url(#c)" opacity=".69"/></svg>