<svg fill="none" height="24" viewBox="0 0 24 24" width="24" xmlns="http://www.w3.org/2000/svg"><path d="m4.20703 2.79297-1.41406 1.41406 2.2832 2.2832c-2.87683 2.34797-4.07617 5.50977-4.07617 5.50977s3 8 11 8c2.0756 0 3.806-.5453 5.2422-1.3438l2.5508 2.5508 1.414-1.414zm7.79297 1.20703c-1.212 0-2.2942.19972-3.2832.51172l2.5605 2.56055c.237-.035.4757-.07227.7227-.07227 2.761 0 5 2.239 5 5 0 .247-.0373.4857-.0723.7227l3.4297 3.4296c1.847-2.05 2.6426-4.1523 2.6426-4.1523s-3-8-11-8zm-4.16602 5.24805 1.4629 1.46285c-.18872.3899-.29688.8257-.29688 1.2891 0 1.657 1.343 3 3 3 .4634 0 .8992-.1082 1.2891-.2969l1.4629 1.4629c-.79.5238-1.7327.834-2.752.834-2.761 0-5-2.239-5-5 0-1.0193.31024-1.962.83398-2.75195z" fill="#1a477f"/></svg>