<svg fill="none" height="24" viewBox="0 0 24 24" width="24" xmlns="http://www.w3.org/2000/svg"><path d="m12 2c-5.523 0-10 4.477-10 10s4.477 10 10 10 10-4.477 10-10-4.477-10-10-10zm3.7805 12.7195c.293.293.293.7675 0 1.0605-.1465.147-.3385.22-.5305.22s-.384-.073-.5305-.2195l-2.7195-2.72-2.7195 2.7195c-.1465.147-.3385.22-.5305.22s-.384-.073-.5305-.2195c-.293-.293-.293-.7675 0-1.0605l2.72-2.72-2.7195-2.7195c-.293-.293-.293-.7675 0-1.0605s.7675-.293 1.0605 0l2.7195 2.7195 2.7195-2.7195c.293-.293.7675-.293 1.0605 0s.293.7675 0 1.0605l-2.7195 2.7195z" fill="#ff3918"/></svg>