<svg width="18" height="18" viewBox="0 0 18 18" fill="none" xmlns="http://www.w3.org/2000/svg">
<path fill-rule="evenodd" clip-rule="evenodd" d="M3.75 14.8969C3.75 15.7807 4.45642 16.5 5.3245 16.5H9.34821V12.4031C9.34821 11.5193 10.0546 10.8 10.9227 10.8H14.9464V3.85313C14.9464 2.96927 14.24 2.25 13.3719 2.25H5.3245C4.45642 2.25 3.75 2.96927 3.75 3.85313V14.8969ZM10.3979 12.4031V16.1869L14.6389 11.8688H10.9227C10.6334 11.8688 10.3979 12.1085 10.3979 12.4031ZM8.29737 8.92621H9.46408C10.0729 8.92621 10.5413 8.79202 10.8693 8.52364C11.1974 8.25526 11.3614 7.79677 11.3614 7.14819C11.3614 6.55427 11.1974 6.11567 10.8693 5.83238C10.5413 5.54909 10.1015 5.40744 9.54981 5.40744H7.15675V10.9018H8.29737V8.92621ZM10.2245 7.15564C10.2245 7.44142 10.1499 7.65016 10.0008 7.78187C9.84925 7.91357 9.63803 7.97942 9.36716 7.97942H8.29737V6.36169H9.36716C9.63803 6.36169 9.84801 6.42257 9.99711 6.54433C10.1487 6.6661 10.2245 6.86987 10.2245 7.15564Z" fill="#333333"/>
</svg>
