<svg fill="none" height="18" viewBox="0 0 18 18" width="18" xmlns="http://www.w3.org/2000/svg"><path d="m4.2 1.80005c-.663 0-1.2.537-1.2 1.2v12.59995c0 .663.537 1.2 1.2 1.2h9.6c.663 0 1.2-.537 1.2-1.2v-9.29995c0-.159-.063-.31142-.1758-.42422l-3.9-3.9c-.1128-.1128-.2652-.17578-.4242-.17578zm6 1.14258 3.6574 3.65742h-3.0574c-.3312 0-.6-.2688-.6-.6zm-4.45898 6.15937c.1842 0 .36555.01736.54375.05156s.33715.10019.47695.20039.25459.24125.34219.42305c.0876.1824.13125.4197.13125.7113.0006.264-.03636.4873-.11016.6715-.0744.1842-.17288.3342-.29648.45-.1242.1158-.26808.1998-.43008.252-.1626.0522-.32879.0785-.50039.0785h-.07852c-.0366 0-.07407-.0011-.11367-.0035s-.07939-.004-.11719-.0082c-.0378-.0036-.06466-.0087-.08086-.0129v1.4461h-.75586v-4.15785c.144-.0318.30241-.057.47461-.075.1716-.018.34286-.02695.51446-.02695zm3.04804 0c.3318 0 .60886.05152.83086.15352s.40058.24525.53438.43125c.1344.186.2284.40933.2848.66913.0558.2598.0843.5509.0843.8707 0 .2922-.0268.5709-.0808.8367s-.1486.4998-.2848.702c-.1368.2022-.32091.3628-.55311.4828s-.52319.1805-.87539.1805c-.0516 0-.12274-.0029-.21094-.0071-.0876-.0042-.17939-.008-.27539-.014s-.18836-.0128-.27656-.0188c-.0876-.006-.15591-.0127-.20391-.0211v-4.20583c.072-.012.15375-.02096.24375-.02696.0894-.006.18119-.01157.27539-.01757.0936-.006.18545-.00992.27305-.01172.0882-.0018.16597-.00352.23437-.00352zm2.33434.05977h2.1v.69609h-1.3429v1.09214h1.2351v.6961h-1.2351v1.7157h-.7571zm-5.30973.61172c-.1236 0-.22546.01066-.30586.03046v1.43435c.024.0084.06877.0151.13477.0211s.11194.0082.13594.0082c.0876 0 .17155-.0111.25195-.0351.0798-.024.15091-.0649.21211-.1231.0624-.0582.11225-.1382.14765-.2402.0366-.102.05391-.2307.05391-.3867 0-.132-.01736-.2446-.05156-.3364s-.07951-.1651-.13711-.2191c-.0582-.054-.12596-.09319-.20156-.11719-.0762-.024-.15624-.03632-.24024-.03632zm3.05391.02461c-.0636 0-.12853.00111-.19453.00351-.0654.0018-.11752.00626-.15352.01406v2.89223c.0126.0036.03328.0075.06328.0093s.0625.0041.0961.0059.06492.0041.09492.0059.05128.0035.06328.0035c.18 0 .32774-.0426.44414-.1266.1152-.084.20765-.1965.27305-.3363.066-.1398.11131-.301.13711-.4828s.03984-.3733.03984-.5731c0-.1842-.01178-.361-.03398-.5332-.0204-.1716-.06299-.3233-.12539-.4535-.0624-.1296-.1491-.23372-.2625-.31172-.114-.078-.2624-.11718-.4418-.11718z" fill="#fff"/></svg>