<svg fill="none" height="22" viewBox="0 0 22 22" width="22" xmlns="http://www.w3.org/2000/svg"><path d="m11 1.83301c-4.29644 0-7.79169 3.49525-7.79169 7.79166 0 1.84983.66413 3.64513 1.87596 5.06363.13842.1572 3.40404 3.8679 4.49488 4.9079.39829.3799.90935.5701 1.42085.5701s1.0225-.1902 1.4213-.5701c1.2682-1.2096 4.3651-4.7598 4.5008-4.9157 1.2054-1.4107 1.8695-3.206 1.8695-5.05583 0-4.29641-3.4952-7.79166-7.7916-7.79166zm0 10.08329c-1.26548 0-2.29169-1.0262-2.29169-2.29163 0-1.26545 1.02621-2.29166 2.29169-2.29166 1.2654 0 2.2916 1.02621 2.2916 2.29166 0 1.26543-1.0262 2.29163-2.2916 2.29163z" fill="#fff"/></svg>