<svg fill="none" height="24" viewBox="0 0 24 24" width="24" xmlns="http://www.w3.org/2000/svg"><path d="m1.91998 1.92v.48 6.24h6.72v-6.72zm13.44002 0v.48 6.24h6.72v-6.72zm-12.48002.96h4.8v4.8h-4.8zm6.72 0v2.88h1.92002v1.44h-1.92002v2.4h-4.32v1.92h-1.92v2.88h2.88v-1.92h1.44v1.92h2.88002v-3.84h.96v1.92h3.36v1.44h2.4v1.44h-3.84v1.92h-1.92v2.88h2.88v-1.92h2.88v3.84h4.8v-4.8h-3.84v-.96h3.84v-4.8h-2.88v1.44h-.96v-3.36h-5.76v-1.44h1.92v-3.36h-1.92v-1.92zm6.72002 0h4.8v4.8h-4.8zm-12.48002.96v2.88h2.88v-2.88zm13.44002 0v2.88h2.88v-2.88zm-15.36002 11.52v.48 6.24h6.72v-6.72zm.96.96h4.8v4.8h-4.8zm.96.96v2.88h2.88v-2.88z" fill="#4e94eb"/></svg>