<svg fill="none" height="24" viewBox="0 0 24 24" width="24" xmlns="http://www.w3.org/2000/svg"><path d="m6.25 2c-1.2405 0-2.25 1.0095-2.25 2.25v10.4258c.3375.16.61643.4174.79492.7529.076.1405 1.98133 3.5713 6.59078 3.5713 2.098 0 3.7227-.7055 4.8907-1.5h-.0264c-.965 0-1.75-.785-1.75-1.75s.785-1.75 1.75-1.75h3.75v-4h-5.75c-1.2405 0-2.25-1.0095-2.25-2.25v-5.75zm7.25.43945v5.31055c0 .4135.3365.75.75.75h5.3105zm2.75 12.56055c-.0994-.0014-.1981.017-.2903.054-.0922.0371-.1761.0921-.2469.1619s-.127.1529-.1654.2446c-.0383.0917-.0581.1901-.0581.2895s.0198.1978.0581.2895c.0384.0917.0946.1748.1654.2446s.1547.1248.2469.1619c.0922.037.1909.0554.2903.054h2.6191c-.993 1.1693-3.4744 3.5-7.4834 3.5-5.35064 0-7.47359-4.1025-7.47359-4.1025-.06324-.1231-.15929-.2263-.27752-.2981-.11823-.0719-.25404-.1097-.3924-.1092-.1302.0005-.25805.0348-.37097.0996-.11292.0649-.20701.158-.27303.2702s-.10168.2397-.10349.3699c-.0018.1302.03031.2586.09319.3726 0 0 2.66354 4.8975 8.79781 4.8975 4.5426 0 7.4229-2.6549 8.6143-4.0342v2.7842c-.0014.0994.017.1981.054.2903.0371.0922.0921.1761.1619.2469s.1529.127.2446.1654c.0917.0383.1901.0581.2895.0581s.1978-.0198.2895-.0581c.0917-.0384.1748-.0946.2446-.1654s.1248-.1547.1619-.2469c.037-.0922.0554-.1909.054-.2903v-4.5c0-.1989-.079-.3897-.2197-.5303-.1406-.1407-.3314-.2197-.5303-.2197z" fill="#f26b55"/></svg>