<svg width="20" height="20" viewBox="0 0 20 20" fill="none" xmlns="http://www.w3.org/2000/svg">
<path d="M10.0002 2.5C9.67141 2.5 9.35941 2.52735 9.06346 2.56429C8.95325 2.57588 8.84646 2.60934 8.74934 2.6627C8.65221 2.71606 8.56671 2.78826 8.49782 2.87506C8.42894 2.96186 8.37805 3.06154 8.34815 3.16824C8.31824 3.27495 8.30992 3.38655 8.32367 3.49651C8.33741 3.60647 8.37295 3.71258 8.4282 3.80865C8.48345 3.90471 8.5573 3.98879 8.64543 4.05596C8.73357 4.12314 8.83421 4.17206 8.94148 4.19988C9.04875 4.22769 9.16049 4.23383 9.27017 4.21794C9.52171 4.18654 9.76305 4.16667 10.0002 4.16667C13.2319 4.16667 15.8335 6.76823 15.8335 10C15.8335 13.2318 13.2319 15.8333 10.0002 15.8333C6.76838 15.8333 4.16681 13.2318 4.16681 10C4.16681 8.90206 4.47466 7.88281 5.00015 7.00928V7.08333C4.99858 7.19376 5.01899 7.3034 5.06016 7.40587C5.10134 7.50834 5.16248 7.60161 5.24001 7.68025C5.31755 7.75889 5.40994 7.82134 5.51182 7.86396C5.61371 7.90659 5.72304 7.92853 5.83348 7.92853C5.94392 7.92853 6.05325 7.90659 6.15513 7.86396C6.25702 7.82134 6.34941 7.75889 6.42695 7.68025C6.50448 7.60161 6.56562 7.50834 6.6068 7.40587C6.64797 7.3034 6.66837 7.19376 6.66681 7.08333V4.79655V4.58333C6.66679 4.36233 6.57899 4.15038 6.42271 3.9941C6.26644 3.83783 6.05449 3.75002 5.83348 3.75H3.33348C3.22305 3.74844 3.11342 3.76884 3.01094 3.81002C2.90847 3.8512 2.8152 3.91233 2.73656 3.98987C2.65792 4.0674 2.59547 4.1598 2.55285 4.26168C2.51023 4.36356 2.48828 4.4729 2.48828 4.58333C2.48828 4.69377 2.51023 4.80311 2.55285 4.90499C2.59547 5.00687 2.65792 5.09926 2.73656 5.1768C2.8152 5.25434 2.90847 5.31547 3.01094 5.35665C3.11342 5.39783 3.22305 5.41823 3.33348 5.41667H4.07078C3.0884 6.68496 2.50015 8.27566 2.50015 10C2.50015 14.1324 5.86775 17.5 10.0002 17.5C14.1326 17.5 17.5002 14.1324 17.5002 10C17.5002 5.8676 14.1326 2.5 10.0002 2.5Z" fill="#00A0A9"/>
</svg>
