<svg width="18" height="18" viewBox="0 0 18 18" fill="none" xmlns="http://www.w3.org/2000/svg">
<path d="M7.24563 0C3.25286 0 0 3.25286 0 7.24563C0 11.2384 3.25286 14.4913 7.24563 14.4913C8.97277 14.4913 10.5605 13.8811 11.8073 12.8672L16.7096 17.7696C16.7787 17.8415 16.8614 17.8989 16.953 17.9385C17.0445 17.978 17.143 17.9989 17.2428 18C17.3425 18.001 17.4414 17.9821 17.5337 17.9444C17.626 17.9067 17.7099 17.851 17.7804 17.7804C17.851 17.7099 17.9067 17.626 17.9444 17.5337C17.9821 17.4414 18.001 17.3425 18 17.2428C17.9989 17.143 17.978 17.0445 17.9385 16.953C17.8989 16.8614 17.8415 16.7787 17.7696 16.7096L12.8672 11.8073C13.8811 10.5605 14.4913 8.97276 14.4913 7.24563C14.4913 3.25286 11.2384 0 7.24563 0ZM7.24563 1.4991C10.4282 1.4991 12.9922 4.06303 12.9922 7.24563C12.9922 8.796 12.3806 10.1967 11.3886 11.2286C11.3275 11.2735 11.2735 11.3275 11.2286 11.3886C10.1967 12.3806 8.796 12.9922 7.24563 12.9922C4.06303 12.9922 1.4991 10.4282 1.4991 7.24563C1.4991 4.06303 4.06303 1.4991 7.24563 1.4991Z" fill="#1A477F"/>
</svg>
