<svg fill="none" height="24" viewBox="0 0 24 24" width="24" xmlns="http://www.w3.org/2000/svg"><path d="m6 2.5c-.19 0-.36977.0702-.50977.2002l-2.49023 2.2998h18l-2.4902-2.2998c-.14-.13-.3198-.2002-.5098-.2002zm-4 4v1.15039c0 1.57 1.26996 2.84961 2.83496 2.84961 1.56 0 2.83008-1.27961 2.83008-2.84961v-1.15039zm7.16504 0v1.15039c0 1.57 1.27496 2.84961 2.83496 2.84961s2.835-1.27961 2.835-2.84961v-1.15039zm7.16996 0v1.15039c0 1.57 1.27 2.84961 2.83 2.84961 1.565 0 2.835-1.27961 2.835-2.84961v-1.15039zm-7.91996 3.5947c-.78 1.15-2.09508 1.9053-3.58008 1.9053-.655 0-1.27496-.1452-1.83496-.4102v9.6602c0 .415.335.75.75.75h2.25v-7.5c0-.275.225-.5.5-.5h4c.275 0 .5.225.5.5v7.5h9.25c.415 0 .75-.335.75-.75v-9.6602c-.56.265-1.18.4102-1.835.4102-1.485 0-2.8-.7553-3.58-1.9053-.78 1.15-2.095 1.9053-3.585 1.9053s-2.80496-.7553-3.58496-1.9053zm5.58496 3.9053h3.5c.275 0 .5.225.5.5v3.5c0 .275-.225.5-.5.5h-3.5c-.275 0-.5-.225-.5-.5v-3.5c0-.275.225-.5.5-.5z" fill="#4e94eb"/></svg>