<svg fill="none" height="24" viewBox="0 0 24 24" width="24" xmlns="http://www.w3.org/2000/svg"><path d="m12.0001 2c-.1345 0-.269.0359-.3887.1084l-6.8047 4.125c-1.182.716-1.80664 1.7586-1.80664 3.0166 0 .4145.336.75.75.75h16.50004c.414 0 .75-.3355.75-.75 0-1.258-.6247-2.3006-1.8067-3.0166l-6.8047-4.125c-.1197-.0725-.2541-.1084-.3886-.1084zm0 3.5c.5525 0 1 .4475 1 1s-.4475 1-1 1-1-.4475-1-1 .4475-1 1-1zm-6.26176 5.4893c-.19874.0031-.38812.0849-.52655.2276-.13843.1426-.21458.3344-.21173.5331v6.5c.00002.1989.07905.3897.21969.5303.14065.1407.33141.2197.53031.2197h12.50004c.1989 0 .3896-.079.5303-.2197.1406-.1406.2196-.3314.2197-.5303v-6.5c.0014-.0994-.017-.1981-.0541-.2903-.037-.0922-.092-.1761-.1618-.2469s-.153-.127-.2446-.1654c-.0917-.0383-.1901-.0581-.2895-.0581s-.1978.0198-.2895.0581c-.0917.0384-.1749.0946-.2447.1654-.0697.0708-.1248.1547-.1618.2469-.0371.0922-.0554.1909-.054.2903v5.75h-1v-5.75c.0014-.0994-.017-.1981-.0541-.2903-.037-.0922-.092-.1761-.1618-.2469s-.153-.127-.2446-.1654c-.0917-.0383-.1901-.0581-.2895-.0581s-.1978.0198-.2895.0581c-.0917.0384-.1749.0946-.2447.1654-.0697.0708-.1248.1547-.1618.2469-.0371.0922-.0554.1909-.054.2903v5.75h-1v-5.75c.0014-.0994-.017-.1981-.0541-.2903-.037-.0922-.092-.1761-.1618-.2469s-.153-.127-.2446-.1654c-.0917-.0383-.1901-.0581-.2895-.0581s-.1978.0198-.2895.0581c-.0917.0384-.1749.0946-.2447.1654-.0697.0708-.1248.1547-.1618.2469-.0371.0922-.0554.1909-.054.2903v5.75h-1v-5.75c.0014-.0994-.017-.1981-.0541-.2903-.037-.0922-.092-.1761-.1618-.2469s-.153-.127-.2446-.1654c-.0917-.0383-.1901-.0581-.2895-.0581s-.1978.0198-.2895.0581c-.0917.0384-.1749.0946-.2447.1654-.0697.0708-.1248.1547-.1618.2469-.0371.0922-.05544.1909-.054.2903v5.75h-1.00004v-5.75c.00141-.0994-.01695-.1981-.05401-.2903s-.09209-.1761-.16187-.2469-.15294-.127-.24463-.1654c-.09169-.0383-.19009-.0581-.28949-.0581-.09939 0-.19779.0198-.28949.0581-.09169.0384-.17485.0946-.24463.1654s-.1248.1547-.16186.2469-.05542.1909-.05402.2903v5.75h-1v-5.75c.00144-.1004-.01728-.2-.05507-.293-.03778-.0931-.09385-.1775-.16488-.2485-.07104-.0709-.15559-.1269-.24865-.1645-.09306-.0377-.19274-.0563-.29312-.0547zm-1.98828 9.0107c-.09938-.0014-.19805.017-.29028.054-.09223.0371-.17617.0921-.24694.1619-.07078.0698-.12698.1529-.16534.2446-.03837.0917-.05812.1901-.05812.2895s.01975.1978.05812.2895c.03836.0917.09456.1748.16534.2446.07077.0698.15471.1248.24694.1619.09223.037.1909.0554.29028.054h16.50004c.0993.0014.198-.017.2902-.054.0923-.0371.1762-.0921.247-.1619s.127-.1529.1653-.2446c.0384-.0917.0581-.1901.0581-.2895s-.0197-.1978-.0581-.2895c-.0383-.0917-.0945-.1748-.1653-.2446s-.1547-.1248-.247-.1619c-.0922-.037-.1909-.0554-.2902-.054z" fill="#fff"/></svg>