<svg fill="none" height="24" viewBox="0 0 20 24" width="20" xmlns="http://www.w3.org/2000/svg"><path d="m9.76016 0s-3.49436 4.28813-9.76016 4.12912v4.31861h19.5198v-4.31861c-6.2653.1585-9.76015-4.12912-9.76015-4.12912z" fill="#ffb600"/><path d="m0 4.14995v15.72095c6.26528-.1585 9.76015 4.1291 9.76015 4.1291v-15.72093s-3.49436-4.28813-9.76015-4.12912z" fill="#00a0a9"/><path d="m19.5198 4.14995v15.72095c-6.2653-.1585-9.76013 4.1291-9.76013 4.1291v-15.72093s3.49433-4.28813 9.76013-4.12912z" fill="#006e96"/><g fill="#fff"><path d="m6.94405 14.2238c.08935.3958.13302.8068.12845 1.234-.00457.4364-.06093.8265-.16703 1.1679-.10814.3429-.25892.6249-.45641.8479-.19596.222-.42949.3708-.70059.4491-.27009.0767-.56759.068-.892-.0249-.48178-.1382-.87473-.3729-1.18136-.7057-.30664-.3322-.5483-.7361-.72193-1.2106-.17362-.4765-.2914-1.0063-.35385-1.5956-.06244-.5893-.09037-1.2116-.08377-1.871.00559-.5375.0523-1.0694.14266-1.5921.09037-.5248.23404-.98355.43305-1.37522.19749-.39422.4559-.68633.77523-.87886.31781-.19254.70923-.22099 1.17172-.0884.26146.07519.5087.20625.73868.39219.22845.18593.43203.41149.6082.67616.17565.26468.31831.56283.42848.89513.10915.3317.16703.6833.17718 1.0541l-1.06917-.3068c-.02082-.3744-.11372-.6996-.27669-.9739-.16347-.2743-.38533-.45059-.66709-.53136-.19292-.05538-.36045-.05436-.5026.00253-.14215.05893-.26247.15596-.35995.28953-.09899.1352-.1787.2982-.24114.4908-.06093.193-.11119.4003-.1518.6198-.03909.2199-.06905.4404-.08631.6629s-.03452.4298-.04924.6228l.01878.0315c.14723-.3185.34878-.5278.60363-.6309.25486-.1016.5285-.1113.82244-.0269.32441.0929.61531.2535.86966.4805.25435.2271.4696.5014.64475.822.17515.3211.30715.6782.39802 1.0724zm-1.0184 1.5815c.05026-.2129.07615-.4405.07869-.6803.00254-.2377-.01828-.477-.06397-.7117-.04417-.2362-.11321-.4516-.20866-.6462-.09544-.1945-.21474-.3642-.35689-.5085-.14266-.1443-.3107-.2433-.50464-.2987-.19393-.0554-.36299-.0554-.51225.0015-.14722.0554-.27211.1529-.37365.2911s-.1787.3114-.23201.5197c-.05178.2068-.07869.4359-.08123.6833s.0198.4902.06651.7275c.04823.2372.12134.4577.21983.6604.09798.2047.21982.3789.36502.5237.14672.1453.31577.2449.50869.3003.19444.0558.3635.0518.50819-.0137.14469-.0656.26653-.1718.36553-.314.099-.1428.1721-.3206.22084-.5339"/><path d="m15.2939 8.58388.2757-.00762c.0193.00559.0386.01423.0584.01677.2771.03505.5264.13818.7346.32411.4548.40793.6259.94236.6574 1.53366.001.0239-.0305.064-.0553.0722-.133.0442-.2681.0812-.4026.1204-.1985.0574-.3965.1138-.5798.1661-.0558-.1915-.0934-.382-.1675-.5563-.1142-.26822-.3366-.44907-.6544-.41199-.2676.03099-.4955.14428-.6859.33429-.2929.2921-.4518.6568-.5584 1.048-.1569.5766-.2183 1.1674-.2427 1.7628-.0046.1103-.0102.2205-.0152.3307.0766-.127.1294-.2596.1969-.384.2879-.5345.7037-.919 1.3017-1.076.6351-.1661 1.1697.0224 1.549.5466.232.3211.3487.6904.4183 1.076.0259.1433.0457.2875.068.4313l.0152.5339c-.0045.0198-.0126.0391-.0137.0589-.0259.7214-.1893 1.4083-.5401 2.0417-.3204.5787-.7509 1.0491-1.3743 1.3077-.3422.1422-.7006.225-1.0733.1712-.4863-.0701-.8158-.3678-1.0473-.7824-.2635-.4719-.3818-.9906-.4508-1.521-.0757-.5781-.1142-1.1587-.1178-1.7424-.0046-.7534.0528-1.5012.2117-2.2383.1741-.8093.4529-1.5739.9722-2.23377.2731-.34646.6036-.61571 1.0164-.7737.1629-.06249.3361-.09957.5041-.14834zm-1.5124 6.59402c.0107.3769.0452.6492.1427.9103.0939.252.2234.4811.4711.6091.3264.1687.6336.0757.9154-.1107.301-.1997.4858-.4989.6092-.8301.2264-.6061.264-1.2299.1274-1.8629-.0406-.1895-.1086-.3708-.2259-.5268-.2853-.379-.6382-.4303-1.0733-.2255-.2837.1336-.4787.3642-.631.6319-.266.4669-.3386.9774-.3356 1.4052z"/></g></svg>