<svg fill="none" height="20" viewBox="0 0 20 20" width="20" xmlns="http://www.w3.org/2000/svg"><path d="m4.25 0c-1.2425 0-2.25 1.0075-2.25 2.25v15.5c0 1.2425 1.0075 2.25 2.25 2.25h11.5c1.2425 0 2.25-1.0075 2.25-2.25v-9.75h-5.75c-1.2425 0-2.25-1.0075-2.25-2.25v-5.75zm7.25.43945v5.31055c0 .4135.3365.75.75.75h5.3105zm-3.75 9.59085c.6905 0 1.25.5595 1.25 1.25s-.5595 1.25-1.25 1.25-1.25-.5595-1.25-1.25.5595-1.25 1.25-1.25zm4.5 0c.6905 0 1.25.5595 1.25 1.25s-.5595 1.25-1.25 1.25-1.25-.5595-1.25-1.25.5595-1.25 1.25-1.25zm-5.03125 4.1318c.24025-.016.48414.0841.64258.2891.51847.6665 1.29767 1.0488 2.13867 1.0488s1.6197-.3828 2.1377-1.0498c.2545-.3275.7257-.3858 1.0527-.1318.3275.2545.3863.7247.1328 1.0517-.8045 1.036-2.0157 1.6299-3.3232 1.6299s-2.51874-.5944-3.32324-1.6299c-.254-.327-.19469-.7982.13281-1.0517.12263-.0955.26503-.1467.40918-.1563z" fill="#1a477f"/></svg>