<svg fill="none" height="20" viewBox="0 0 20 20" width="20" xmlns="http://www.w3.org/2000/svg"><path d="m3.25004 0c-1.24052 0-2.25004.961429-2.25004 2.14286v14.76194c0 1.1814 1.00952 2.1428 2.25004 2.1428h10.25016v-.0242c-2.523-.2395-4.50005-2.2729-4.50005-4.7377 0-2.6257 2.24305-4.76189 5.00005-4.76189 1.1266 0 2.1631.3612 3.0001.96169v-2.86645h-5.7501c-1.2405 0-2.25005-.96143-2.25005-2.14286v-5.47619zm7.25016.418527v5.057663c0 .39381.3365.71429.75.71429h5.3106zm3.5 10.057673c-2.2055 0-4 1.709-4 3.8095s1.7945 3.8095 4 3.8095c.8326 0 1.6052-.2441 2.2462-.6603l2.4737 2.3558c.1465.14.3382.2093.5302.2093s.3838-.0697.5303-.2093c.2925-.279.2925-.731 0-1.01l-2.4727-2.3558c.4365-.6105.6924-1.3463.6924-2.1392 0-2.1005-1.7945-3.8095-4.0001-3.8095zm0 1.4286c1.3786 0 2.5001 1.0681 2.5001 2.3809 0 1.3129-1.1215 2.381-2.5001 2.381-1.3785 0-2.5-1.0681-2.5-2.381 0-1.3128 1.1215-2.3809 2.5-2.3809z" fill="#1a477f"/></svg>