<svg fill="none" height="20" viewBox="0 0 20 20" width="20" xmlns="http://www.w3.org/2000/svg"><path d="m9.97444 1.00042c-.13763.00473-.27149.04696-.3876.12228l-9.230457 5.97642c-.085258.05519-.158997.12692-.217003.21111-.0580056.08418-.099143.17916-.1210622.27953-.02191929.10036-.024191.20413-.0066854.30538.0175055.10126.0544454.19801.1087096.28474.054265.08673.124791.16173.20755.22072.082759.059.176131.10083.274781.1231.098651.02227.200648.02456.300166.00672.099521-.01784.194611-.05545.279841-.11068l8.8173-5.70893 8.81732 5.70893c.0852.05524.1803.09286.2798.1107.0996.01784.2016.01556.3002-.00672.0987-.02227.192-.0641.2748-.12309s.1533-.134.2076-.22073c.0542-.08673.0912-.18349.1087-.28475.0175-.10125.0152-.20503-.0067-.30539-.0219-.10037-.0631-.19535-.1211-.27954-.058-.08418-.1318-.15592-.217-.2111l-9.2305-5.97642c-.1307-.08482-.2837-.127441-.43866-.12228zm.02554 3.13036-8.46125 5.47813v7.82589c0 .8648.68844 1.5652 1.53841 1.5652h3.07682v-3.1304c0-2.1607 1.72225-3.9129 3.84602-3.9129 2.12382 0 3.84602 1.7522 3.84602 3.9129v3.1304h3.0768c.85 0 1.5384-.7004 1.5384-1.5652v-7.82589z" fill="#1a477f"/></svg>