<svg width="20" height="20" viewBox="0 0 20 20" fill="none" xmlns="http://www.w3.org/2000/svg">
<path d="M10 0C4.477 0 0 4.47701 0 10C0 15.523 4.477 20 10 20C15.523 20 20 15.523 20 10C20 4.47701 15.523 0 10 0ZM5.75001 6H14.25C14.664 6 15 6.33551 15 6.75C15 7.16451 14.664 7.5 14.25 7.5H5.75001C5.336 7.5 5.00001 7.16451 5.00001 6.75C5.00001 6.33551 5.336 6 5.75001 6ZM5.76172 9H14.25C14.664 9 15 9.33551 15 9.74996C15 10.1646 14.664 10.5 14.25 10.5H5.76172C5.34772 10.5 5.01172 10.1646 5.01172 9.74996C5.01172 9.33551 5.34772 9 5.76172 9ZM5.75001 12H14.2383C14.6523 12 14.9883 12.3355 14.9883 12.75C14.9883 13.1646 14.6523 13.5 14.2383 13.5H5.75001C5.336 13.5 5.00001 13.1646 5.00001 12.75C5.00001 12.3355 5.336 12 5.75001 12Z" fill="#1A477F"/>
</svg>
