<svg fill="none" height="20" viewBox="0 0 20 20" width="20" xmlns="http://www.w3.org/2000/svg"><path d="m19.2187 1.00009c-.2038.0031-.3979.0848-.5399.22717s-.2201.33377-.2173.5322v.30287l-15.38452 6.06469v3.74558l3.59522 1.4164-.27193.6262c-.49385 1.1348.05987 2.4646 1.22445 2.9453h.0015l1.82991.7549c1.16527.481 2.53227-.0597 3.02587-1.1939l.3124-.7184 5.6671 2.2342v.3029c-.0015.0993.0174.1978.0554.2899.038.0922.0944.176.166.2467s.1568.1268.2509.1652c.094.0383.195.058.2969.058s.2029-.0197.2969-.058c.0941-.0384.1793-.0945.2509-.1652s.128-.1545.166-.2467c.038-.0921.0569-.1906.0554-.2899v-16.48074c.0014-.10023-.0178-.19971-.0566-.29255-.0388-.09285-.0963-.17718-.1692-.24798-.0728-.07081-.1595-.12666-.2549-.16425s-.1976-.056154-.3005-.05459zm-18.461417 6.74213c-.203749.0031-.39791.0848-.539872.22716-.1419613.14237-.2201243.33377-.21733407.5322v2.99652c-.00144157.0992.01739007.1978.05540037.2899s.0944407.176.1660137.2467c.071572.0707.156858.1268.250901.1651s.194968.0581.29691.0581c.101941 0 .202866-.0198.296908-.0581.09404-.0383.17933-.0944.2509-.1651.07158-.0707.12801-.1546.16602-.2467s.05684-.1907.0554-.2899v-2.99652c.00141-.10022-.01785-.1997-.05663-.29255s-.0963-.17717-.16915-.24798-.15954-.12666-.25496-.16425c-.095409-.03759-.197596-.05615-.300507-.05458zm7.340687 6.11008 3.26923 1.289-.302.6964c-.1695.3896-.6088.5628-1.0081.398l-1.83143-.755c-.40002-.1651-.57787-.5929-.40865-.9817z" fill="#1a477f"/></svg>