<svg fill="none" height="20" viewBox="0 0 20 20" width="20" xmlns="http://www.w3.org/2000/svg"><path d="m2.52527 0c-.84652 0-1.52527.684615-1.52527 1.53846v16.92304c0 .8462.67875 1.5385 1.52527 1.5385h12.20213c.8389 0 1.5253-.6923 1.5253-1.5385v-4.4846l-2.7154 2.7298c-.2593.2616-.5874.4384-.9458.5154l-1.5164.3079-.0536.0541c-.5262.5308-1.38036.5308-1.90658 0-.52622-.5307-.52622-1.3923 0-1.923l.28152-.2855v-.5844c0-.6077.2447-1.1994.67176-1.6301l5.696-5.73922c.1449-.14616.3131-.26809.4885-.36809v-1.28456c0-.20769-.0832-.40072-.2204-.54687l-4.9572-5.000004c-.1449-.1461541-.3439-.222356-.5422-.222356zm7.62633 1.46034 4.6444 4.69351h-3.8817c-.4195 0-.7627-.34616-.7627-.76923zm8.173 6.22596c-.0588.00589-.1175.02049-.1727.04357h-.0075c-.0763.03077-.1447.07686-.1981.13071-.0152.01538-.0311.03119-.0387.04657-.3356-.17692-.7618-.11502-1.0516.17729l-2.8376 2.86056 1.7458 1.7623 2.8375-2.86205c.2822-.29231.3435-.72356.1758-1.06971.0152-.00769.0296-.01466.0372-.03005.1144-.10769.1756-.25348.1832-.39964.0153-.17692-.0536-.34681-.1832-.48527-.1316-.1327-.3135-.19195-.4901-.17428zm-15.02925 2.3137h5.33846c.41944 0 .76263.3385.76263.7692 0 .4231-.34319.7693-.76263.7693h-5.33846c-.41944 0-.76263-.3462-.76263-.7693 0-.4307.34319-.7692.76263-.7692zm9.84575 1.8299-2.1807 2.1995-.0998.1082c-.0686.0846-.0765.1468-.1147.293-.0076.0154-.0072.022-.0148.0451l-.2443.9164c-.0153.0693-.0224.1304-.0224.2074 0 .0615.0071.123.0224.1923l-.289.2914c-.1449.1385-.1523.3782-.0074.5244.1449.1538.3732.1613.5258.0075.0076 0 .0074.0002.0074-.0075l.2905-.293c.0686.0231.1296.0316.1906.0316.0915 0 .1679-.0159.2518-.0466l.8534-.2239c.0229-.0077.0308-.015.0537-.015.061-.0231.1065-.0462.137-.0616.061-.0462.0988-.0996.2056-.2073l2.1821-2.1996zm-9.84575 1.238h3.05055c.41945 0 .76263.3462.76263.7692 0 .4231-.34318.7693-.76263.7693h-3.05055c-.41944 0-.76263-.3462-.76263-.7693 0-.423.34319-.7692.76263-.7692z" fill="#1a477f"/></svg>