<svg fill="none" height="20" viewBox="0 0 20 20" width="20" xmlns="http://www.w3.org/2000/svg"><path d="m9.99997 0c-.13434 0-.26858.0368205-.38814.111179l-6.79666 4.230751c-1.1806.73436-1.8045 1.80369-1.8045 3.09394 0 .42513.3356.76923.74911.76923h16.48042c.4135 0 .7491-.3441.7491-.76923 0-1.29025-.6238-2.35958-1.8044-3.09394l-6.7967-4.230751c-.1195-.0743585-.2539-.111179-.38823-.111179zm0 3.58973c.55183 0 .99883.45897.99883 1.02564 0 .56666-.447 1.02563-.99883 1.02563-.55185 0-.99882-.45897-.99882-1.02563 0-.56667.44697-1.02564.99882-1.02564zm-6.25426 5.63003c-.19851.00318-.38767.08708-.52593.23343-.13827.14626-.21433.34298-.21148.54677v6.66664c.00002.204.07895.3997.21943.5439.14048.1443.33101.2253.52968.2253h12.48519c.1986 0 .3892-.081.5296-.2253.1406-.1442.2195-.3399.2195-.5439v-6.66664c.0014-.10195-.0169-.20318-.054-.29774-.0369-.09456-.0919-.18061-.1616-.25323s-.1528-.13026-.2444-.16964c-.0916-.03928-.1898-.05959-.2891-.05959s-.1976.02031-.2891.05959c-.0916.03938-.1747.09702-.2444.16964s-.1246.15867-.1616.25323c-.0371.09456-.0554.19579-.054.29774v5.89744h-.9989v-5.89744c.0014-.10195-.0168-.20318-.0539-.29774-.037-.09456-.092-.18061-.1616-.25323-.0697-.07262-.1528-.13026-.2444-.16964-.0916-.03928-.1899-.05959-.2892-.05959s-.1975.02031-.289.05959c-.0916.03938-.1747.09702-.2444.16964-.0698.07262-.1247.15867-.1616.25323-.0371.09456-.0555.19579-.0541.29774v5.89744h-.9988v-5.89744c.0014-.10195-.0169-.20318-.0539-.29774s-.092-.18061-.1616-.25323c-.0698-.07262-.1529-.13026-.2445-.16964-.0915-.03928-.1898-.05959-.2891-.05959s-.1976.02031-.2891.05959c-.0916.03938-.1747.09702-.2444.16964s-.1246.15867-.1616.25323-.0554.19579-.054.29774v5.89744h-.99884v-5.89744c.0014-.10195-.01688-.20318-.05393-.29774-.03696-.09456-.09199-.18061-.16161-.25323-.06972-.07262-.15282-.13026-.24441-.16964-.09159-.03928-.18988-.05959-.28916-.05959s-.19757.02031-.28906.05959c-.09159.03938-.17469.09702-.24441.16964-.06971.07262-.12465.15867-.16161.25323-.03705.09456-.0554.19579-.05399.29774v5.89744h-.99882v-5.89744c.00141-.10195-.01694-.20318-.05395-.29774-.03702-.09456-.09197-.18061-.16167-.25323s-.15276-.13026-.24434-.16964c-.09158-.03928-.18988-.05959-.28915-.05959s-.19756.02031-.28915.05959c-.09158.03938-.17464.09702-.24434.16964-.06969.07262-.12465.15867-.16166.25323-.03703.09456-.05537.19579-.05396.29774v5.89744h-.99882v-5.89744c.00144-.10297-.01727-.20513-.055-.30051-.03774-.09549-.09374-.18205-.1647-.25487-.07094-.07272-.15539-.13015-.24834-.16872-.09295-.03866-.19251-.05774-.29277-.0561zm-1.98593 9.24174c-.09926-.0015-.19783.0174-.28994.0554-.09212.038-.17596.0944-.24665.166s-.12683.1568-.16515.2509c-.03831.094-.05804.1949-.05804.2969 0 .1019.01973.2029.05804.2969.03832.0941.09446.1793.16515.2509s.15453.128.24665.166c.09211.038.19068.0569.28994.0554h16.48042c.0993.0015.1979-.0174.29-.0554.092-.038.176-.0944.2467-.166.0706-.0716.1267-.1568.1651-.2509.0383-.094.058-.195.058-.2969 0-.102-.0197-.2029-.058-.2969-.0384-.0941-.0945-.1793-.1651-.2509-.0707-.0716-.1547-.128-.2467-.166-.0921-.038-.1907-.0569-.29-.0554z" fill="#1a477f"/></svg>