<svg fill="none" height="20" viewBox="0 0 20 20" width="20" xmlns="http://www.w3.org/2000/svg"><path d="m11.9028 2c-2.09834 0-3.80562 1.64068-3.80562 3.65713s1.70728 3.65712 3.80562 3.65712c2.0983 0 3.8057-1.64067 3.8057-3.65712s-1.7074-3.65713-3.8057-3.65713zm-2.1462 7.71334c-.09029-.00156-.18239.01316-.27134.04644-2.15589.80822-3.66947 2.57732-4.1076 4.68572.72029.4983 1.20545 1.2851 1.27753 2.183h-.9607c-.10167-.8685-.7596-1.5735-1.62874-1.7696l-1.25802-2.8419c-.05451-.128-.148-.2372-.26822-.3132-.12021-.076-.26152-.1154-.40539-.1128-.11776.002-.23318.0319-.33598.0871-.1028.0553-.18976.1342-.25315.2295-.06338.0954-.10122.2044-.11012.3173-.00891.1128.01139.2261.05909.3295l1.101 2.4857c-.61678.3098-1.05238.8952-1.13352 1.5884h-.737718c-.094552-.0013-.188437.0156-.276177.0494-.087749.0339-.16761.0842-.234951.148-.067332.0638-.1208111.1398-.1573073.2236-.0364963.0839-.0552867.1738-.0552867.2647s.0187904.1809.0552867.2647c.0364962.0838.0899753.1598.1573073.2236.067341.0639.147202.1141.234951.1481.08774.0338.181625.0506.276177.0493h18.552578c.0945.0013.1884-.0155.2762-.0493.0877-.034.1676-.0842.235-.1481.0672-.0638.1207-.1398.1572-.2236.0366-.0838.0553-.1738.0553-.2647s-.0187-.1808-.0553-.2647c-.0365-.0838-.09-.1598-.1572-.2236-.0674-.0638-.1473-.1141-.235-.148-.0878-.0338-.1817-.0507-.2762-.0494h-.7136v-.9143c0-2.6505-1.6649-4.988-4.2423-5.95442-.3563-.13348-.7606.02688-.9133.36422l-1.5043 3.3045-1.5042-3.3045c-.1149-.25258-.3711-.406-.642-.41066z" fill="#1a477f"/></svg>