<svg width="134" height="50" viewBox="0 0 134 50" fill="none" xmlns="http://www.w3.org/2000/svg">
<g clip-path="url(#clip0_249_1142)">
<path d="M19.6372 7.83814H20.9921V8.72293C21.2718 8.18105 21.9107 7.71643 22.7725 7.71643C23.5335 7.71643 24.1391 8.03711 24.4296 8.75574C24.8777 8.03711 25.6837 7.71643 26.4115 7.71643C27.4866 7.71643 28.3602 8.36838 28.3602 9.96121V13.621H27.0054V10.0491C27.0054 9.19707 26.6356 8.833 25.9635 8.833C25.2914 8.833 24.6762 9.27539 24.6762 10.1602V13.621H23.3213V10.0491C23.3213 9.19707 22.9408 8.833 22.2794 8.833C21.6181 8.833 20.9921 9.27539 20.9921 10.1602V13.621H19.6372V7.83814V7.83814Z" fill="#A77C4F"/>
<path d="M31.462 13.0348L29.1436 7.83826H30.611L32.1674 11.5647L33.6005 7.83826H34.9221L31.73 15.6003H30.3977L31.461 13.0348H31.462Z" fill="#A77C4F"/>
<path d="M36.2772 12.0071V8.84472H35.4937V7.83823H36.2772V6.56714H37.6321V7.83823H38.9194V8.84472H37.6321V11.8854C37.6321 12.3945 37.8786 12.6262 38.3041 12.6262C38.5732 12.6262 38.7747 12.5934 38.9644 12.5151V13.5766C38.7522 13.6539 38.4606 13.7206 38.0458 13.7206C36.8807 13.7206 36.2761 13.1014 36.2761 12.006L36.2772 12.0071Z" fill="#A77C4F"/>
<path d="M39.793 10.8015V10.7126C39.793 8.87745 41.1146 7.71643 42.7492 7.71643C44.0484 7.71643 45.2693 8.29112 45.4257 9.88395H44.1159C44.0033 9.11029 43.4888 8.78961 42.7717 8.78961C41.8424 8.78961 41.1811 9.49765 41.1811 10.6915V10.7804C41.1811 12.0409 41.8081 12.7045 42.805 12.7045C43.5221 12.7045 44.1373 12.2843 44.2167 11.4662H45.46C45.3593 12.7934 44.3399 13.7332 42.7503 13.7332C41.0707 13.7332 39.794 12.6494 39.794 10.8026L39.793 10.8015Z" fill="#A77C4F"/>
<path d="M46.1982 12.0176C46.1982 10.6682 47.5199 10.1824 49.1995 10.1824H49.9273V9.88399C49.9273 9.11033 49.6583 8.72297 48.863 8.72297C48.1576 8.72297 47.8104 9.05529 47.7428 9.62998H46.433C46.5455 8.28058 47.6314 7.71753 48.9412 7.71753C50.251 7.71753 51.2822 8.24777 51.2822 9.83001V13.6232H49.9498V12.9151C49.5693 13.4126 49.0537 13.7332 48.1577 13.7332C47.0825 13.7332 46.1982 13.2242 46.1982 12.0187V12.0176ZM49.9273 11.5975V11.0228H49.2328C48.2027 11.0228 47.5413 11.2546 47.5413 11.9626C47.5413 12.4494 47.8104 12.7701 48.4824 12.7701C49.311 12.7701 49.9273 12.3394 49.9273 11.5985V11.5975Z" fill="#A77C4F"/>
<path d="M52.3906 11.8187H53.6672C53.7348 12.405 54.037 12.7479 54.8324 12.7479C55.5602 12.7479 55.885 12.4939 55.885 12.0071C55.885 11.5202 55.4927 11.354 54.6309 11.2112C53.0852 10.9677 52.5139 10.537 52.5139 9.45324C52.5139 8.29222 53.6115 7.71753 54.7091 7.71753C55.9075 7.71753 56.8593 8.15992 57.0051 9.46488H55.751C55.6395 8.93464 55.3372 8.69122 54.7091 8.69122C54.1271 8.69122 53.7798 8.96745 53.7798 9.37703C53.7798 9.78662 54.0596 9.96336 54.9889 10.1179C56.3663 10.3274 57.1841 10.6598 57.1841 11.8875C57.1841 13.1152 56.3437 13.7343 54.8442 13.7343C53.3446 13.7343 52.4474 13.0485 52.3917 11.8208L52.3906 11.8187Z" fill="#A77C4F"/>
<path d="M58.2915 12.8358C58.2915 12.3489 58.6838 11.9626 59.1769 11.9626C59.67 11.9626 60.073 12.35 60.073 12.8358C60.073 13.3216 59.6807 13.6984 59.1769 13.6984C58.6731 13.6984 58.2915 13.3226 58.2915 12.8358Z" fill="#A77C4F"/>
<path d="M60.9346 10.8015V10.7126C60.9346 8.87745 62.2562 7.71643 63.8908 7.71643C65.19 7.71643 66.4109 8.29112 66.5674 9.88395H65.2575C65.145 9.11029 64.6305 8.78961 63.9134 8.78961C62.984 8.78961 62.3227 9.49765 62.3227 10.6915V10.7804C62.3227 12.0409 62.9497 12.7045 63.9466 12.7045C64.6637 12.7045 65.2789 12.2843 65.3583 11.4662H66.6017C66.5009 12.7934 65.4815 13.7332 63.8919 13.7332C62.2123 13.7332 60.9356 12.6494 60.9356 10.8026L60.9346 10.8015Z" fill="#A77C4F"/>
<path d="M67.3735 10.791V10.7021C67.3735 8.91026 68.6619 7.71643 70.3866 7.71643C72.1113 7.71643 73.3879 8.89967 73.3879 10.6692V10.7582C73.3879 12.5605 72.1006 13.7332 70.3759 13.7332C68.6512 13.7332 67.3746 12.55 67.3746 10.792L67.3735 10.791ZM71.9987 10.7687V10.6915C71.9987 9.49765 71.3942 8.76738 70.3855 8.76738C69.3769 8.76738 68.7616 9.48601 68.7616 10.6798V10.7687C68.7616 11.952 69.3555 12.6928 70.3855 12.6928C71.4156 12.6928 71.9987 11.952 71.9987 10.7687Z" fill="#A77C4F"/>
<path d="M74.6075 7.83814H75.9624V8.72293C76.2421 8.18105 76.881 7.71643 77.7428 7.71643C78.5038 7.71643 79.1094 8.03711 79.3999 8.75574C79.848 8.03711 80.654 7.71643 81.3819 7.71643C82.457 7.71643 83.3305 8.36838 83.3305 9.96121V13.621H81.9757V10.0491C81.9757 9.19707 81.6059 8.833 80.9338 8.833C80.2617 8.833 79.6465 9.27539 79.6465 10.1602V13.621H78.2916V10.0491C78.2916 9.19707 77.9111 8.833 77.2497 8.833C76.5884 8.833 75.9613 9.27539 75.9613 10.1602V13.621H74.6064V7.83814H74.6075Z" fill="#A77C4F"/>
<path d="M5.63599 24.3856H0V20.7533H16.0312V24.3856H10.3952V41.368H5.63599V24.3856Z" fill="#1A477F"/>
<path d="M49.9019 36.7842L48.4709 41.368H44.0322L50.8945 20.7533H57.0557L63.83 41.368H58.895L53.6974 24.5592L49.9008 36.7842H49.9019Z" fill="#1A477F"/>
<path d="M67.707 34.9099H72.2336C72.4384 36.7557 73.2262 38.2829 76.3218 38.2829C78.3948 38.2829 79.7669 37.1589 79.7669 35.5438C79.7669 33.9288 78.8911 33.3234 75.8245 32.863C70.4811 32.1709 68.2912 30.5854 68.2912 26.606C68.2912 23.088 71.27 20.4644 75.8834 20.4644C80.4968 20.4644 83.3298 22.5398 83.7093 26.6346H79.3585C79.0658 24.7602 77.9564 23.8956 75.8834 23.8956C73.8104 23.8956 72.7588 24.847 72.7588 26.2303C72.7588 27.7014 73.4309 28.3925 76.6423 28.854C81.6941 29.4879 84.2924 30.8437 84.2924 35.111C84.2924 38.7729 81.2557 41.6844 76.3207 41.6844C70.5979 41.6844 67.9696 39.0322 67.707 34.9088V34.9099Z" fill="#1A477F"/>
<path d="M39.0554 31.6957L35.576 31.7073C35.531 34.8803 34.129 36.6128 32.7227 37.5558L38.0521 36.562C39.2644 34.0844 39.0554 31.6957 39.0554 31.6957Z" fill="#FFB600"/>
<path d="M36.0584 32.5C35.591 35.1692 34.3123 36.6498 32.9917 37.4701L38.2997 36.7684C39.3673 34.8199 39.497 33.026 39.497 33.026L36.0584 32.5V32.5Z" fill="#FF3918"/>
<path d="M36.191 33.4695C35.5136 35.3957 34.4942 36.5821 33.417 37.3071L38.4688 36.9113C39.2373 35.6084 39.4967 34.5395 39.4967 34.5395L36.19 33.4695H36.191Z" fill="#00A3AB"/>
<path d="M36.3016 34.3416C35.4655 35.7788 34.4751 36.7038 33.4653 37.287L38.6994 37.1039C39.141 36.4583 39.3489 36.0011 39.3489 36.0011L36.3016 34.3426V34.3416Z" fill="#00709A"/>
<path d="M35.7606 35.6064C34.5483 37.0119 32.7775 37.8183 30.9028 37.8183C27.2991 37.8183 24.3675 34.7988 24.3675 31.0882C24.3675 27.3776 27.2991 24.3581 30.9028 24.3581C32.7786 24.3581 34.5483 25.1646 35.7606 26.5701L36.2429 27.13L39.2346 24.6238L38.7533 24.0618C36.84 21.8318 33.978 20.5533 30.9028 20.5533C25.0663 20.5533 20.3179 25.2789 20.3179 31.0882C20.3179 36.8976 25.0663 41.6231 30.9028 41.6231C33.9791 41.6231 36.84 40.3446 38.7533 38.1157L39.2346 37.5537L36.2429 35.0476L35.7606 35.6074V35.6064Z" fill="#1A477F"/>
<path d="M15.834 10.4079H10.9923C10.9194 10.4047 9.19899 10.3422 8.33719 9.667L9.15611 9.09655C9.82926 9.62361 10.9965 9.6797 11.0083 9.6797H14.1125C12.0566 7.71645 9.93109 6.76393 7.73157 6.84542C4.95324 6.94914 2.77516 8.72718 1.80296 9.6797H3.75058L3.55871 10.4068H0.197266L0.673184 9.81623C0.79002 9.6723 3.5705 6.27602 7.69727 6.11833C10.3148 6.01673 12.8638 7.25501 15.2584 9.79507L15.834 10.4068V10.4079Z" fill="#A77C4F"/>
<path d="M5.36897 10.2492C5.33575 10.2492 5.1203 10.2492 5.11279 10.2492L5.34432 9.52209C5.40435 9.52738 6.76779 9.56124 7.8997 8.19808C8.37133 7.6308 8.88155 7.52602 9.24064 7.53131C10.4047 7.56095 11.7896 9.26279 11.8314 9.31888L10.857 9.37392C10.6277 9.06911 9.88806 8.27534 9.22134 8.25841C8.95337 8.25523 8.7004 8.38329 8.47102 8.65952C7.22013 10.1656 5.69376 10.2502 5.37005 10.2502L5.36897 10.2492Z" fill="#A77C4F"/>
<path d="M6.33402 13.7471C5.4958 13.7471 4.80336 13.3026 4.33602 12.4442C3.82044 11.497 3.77649 10.3307 4.2149 9.24481C4.6115 8.26266 5.15387 7.69326 5.82809 7.55356C6.67488 7.37575 7.35553 7.97478 7.38447 8.00018L6.83138 8.5209L7.10793 8.26054L6.83352 8.52195C6.83352 8.52195 6.41977 8.17164 5.99852 8.26372C5.60942 8.34733 5.24927 8.77384 4.95772 9.49776C4.59542 10.3952 4.62757 11.3509 5.04561 12.1193C5.49366 12.9427 6.10571 13.1914 6.97501 12.9067L7.24298 13.5915C6.9257 13.6963 6.62236 13.7481 6.33509 13.7481L6.33402 13.7471Z" fill="#A77C4F"/>
<path d="M7.99213 15.2626C7.89352 15.2626 7.79491 15.2605 7.69629 15.2573C3.56952 15.0996 0.787972 11.7044 0.672208 11.5594L0.196289 10.9688H3.55666L3.74853 11.6959H1.80305C2.77525 12.6474 4.95333 14.4254 7.73167 14.5302C9.92904 14.6128 12.0567 13.6592 14.1126 11.6959H10.9924C10.9924 11.6959 9.82828 11.7531 9.15621 12.2791L8.33728 11.7086C9.19908 11.0334 10.9205 10.9709 10.9773 10.9678H15.8351L15.2595 11.5784C12.955 14.0233 10.5121 15.2605 7.99428 15.2605L7.99213 15.2626Z" fill="#A77C4F"/>
<path d="M9.20195 13.8466C8.85144 13.8466 8.35409 13.7259 7.90068 13.1787C6.76984 11.8166 5.40425 11.8505 5.3453 11.8547L5.11377 11.1266C5.18559 11.1245 7.0914 11.0578 8.46985 12.7173C8.70031 12.9946 8.95435 13.1343 9.22125 13.1184C9.89118 13.1015 10.6286 12.3077 10.8559 12.004L11.8409 12.0473C11.7991 12.1034 10.4035 13.8159 9.23947 13.8455C9.2266 13.8455 9.21481 13.8455 9.20088 13.8455L9.20195 13.8466Z" fill="#A77C4F"/>
<path d="M113.394 0C113.394 0 106.016 8.9336 92.7871 8.60233V17.5994H134V8.60233C120.772 8.93254 113.393 0 113.393 0H113.394Z" fill="#FFB600"/>
<path d="M92.7871 8.64571V41.3977C106.015 41.0674 113.394 50 113.394 50V17.248C113.394 17.248 106.016 8.31444 92.7871 8.64571V8.64571Z" fill="#00A0A9"/>
<path d="M134 8.64571V41.3977C120.772 41.0674 113.393 50 113.393 50V17.248C113.393 17.248 120.771 8.31444 134 8.64571Z" fill="#006E96"/>
<path d="M107.448 29.633C107.637 30.4575 107.729 31.3137 107.719 32.2038C107.71 33.1129 107.591 33.9257 107.367 34.6369C107.138 35.3513 106.82 35.9387 106.403 36.4033C105.989 36.8658 105.496 37.1759 104.924 37.3389C104.354 37.4987 103.726 37.4807 103.041 37.287C102.023 36.9992 101.194 36.5102 100.546 35.817C99.899 35.1248 99.3887 34.2834 99.0222 33.2949C98.6556 32.3022 98.4069 31.1983 98.2751 29.9706C98.1432 28.7429 98.0843 27.4464 98.0982 26.0727C98.11 24.9529 98.2086 23.8448 98.3994 22.7558C98.5902 21.6625 98.8935 20.7068 99.3137 19.8908C99.7307 19.0695 100.276 18.461 100.95 18.0599C101.621 17.6587 102.448 17.5995 103.424 17.8757C103.976 18.0323 104.498 18.3054 104.984 18.6928C105.466 19.0801 105.896 19.55 106.268 20.1014C106.639 20.6528 106.94 21.2741 107.173 21.9663C107.403 22.6574 107.525 23.3897 107.547 24.1623L105.289 23.5231C105.246 22.7431 105.049 22.0657 104.705 21.4942C104.36 20.9227 103.892 20.5555 103.297 20.3872C102.89 20.2718 102.536 20.2739 102.236 20.3925C101.936 20.5152 101.682 20.7174 101.476 20.9957C101.267 21.2773 101.098 21.617 100.967 22.0181C100.838 22.4203 100.732 22.8521 100.646 23.3093C100.564 23.7676 100.5 24.2269 100.464 24.6905C100.427 25.154 100.391 25.5858 100.36 25.988L100.4 26.0536C100.71 25.39 101.136 24.954 101.674 24.7392C102.212 24.5275 102.79 24.5074 103.41 24.6831C104.095 24.8767 104.71 25.2112 105.247 25.6843C105.784 26.1574 106.238 26.7289 106.608 27.3967C106.978 28.0656 107.256 28.8096 107.448 29.6309V29.633ZM105.298 32.9277C105.404 32.4842 105.459 32.0101 105.464 31.5105C105.47 31.0152 105.426 30.5167 105.329 30.0278C105.236 29.5356 105.09 29.0869 104.889 28.6815C104.687 28.2762 104.435 27.9227 104.135 27.6221C103.834 27.3215 103.479 27.1152 103.07 26.9998C102.66 26.8844 102.303 26.8844 101.988 27.003C101.677 27.1183 101.414 27.3215 101.199 27.6094C100.985 27.8973 100.822 28.2582 100.709 28.6921C100.6 29.1229 100.543 29.6002 100.538 30.1156C100.532 30.631 100.58 31.1369 100.678 31.6312C100.78 32.1254 100.934 32.5848 101.142 33.007C101.349 33.4336 101.606 33.7966 101.913 34.0982C102.223 34.4009 102.58 34.6083 102.987 34.7237C103.398 34.8401 103.755 34.8317 104.06 34.6951C104.366 34.5586 104.623 34.3374 104.832 34.0411C105.041 33.7437 105.195 33.3732 105.298 32.9287" fill="white"/>
<path d="M125.078 17.8831L125.66 17.8672C125.7 17.8788 125.741 17.8968 125.783 17.9021C126.368 17.9751 126.894 18.19 127.334 18.5773C128.294 19.4272 128.656 20.5406 128.722 21.7725C128.724 21.8223 128.658 21.9059 128.605 21.9228C128.324 22.0149 128.039 22.0921 127.755 22.1736C127.336 22.2932 126.918 22.4107 126.531 22.5197C126.413 22.1207 126.334 21.7238 126.177 21.3608C125.936 20.802 125.467 20.4252 124.796 20.5025C124.231 20.5671 123.749 20.8031 123.348 21.1989C122.729 21.8075 122.394 22.5674 122.168 23.3823C121.837 24.5835 121.708 25.8144 121.656 27.0548C121.646 27.2845 121.635 27.5141 121.624 27.7438C121.786 27.4792 121.897 27.203 122.04 26.9437C122.648 25.8303 123.525 25.0291 124.788 24.7021C126.129 24.356 127.258 24.7486 128.058 25.8409C128.548 26.5097 128.795 27.2792 128.942 28.0825C128.996 28.3809 129.038 28.6815 129.085 28.981L129.117 30.0933C129.108 30.1346 129.091 30.1748 129.089 30.2161C129.034 31.719 128.689 33.1499 127.948 34.4696C127.272 35.6751 126.363 36.6551 125.046 37.1939C124.324 37.4902 123.567 37.6627 122.78 37.5505C121.754 37.4045 121.058 36.7843 120.569 35.9206C120.013 34.9374 119.763 33.8569 119.617 32.7519C119.458 31.5475 119.376 30.3378 119.369 29.1218C119.359 27.5522 119.48 25.9943 119.816 24.4586C120.183 22.7727 120.772 21.1798 121.868 19.805C122.445 19.0832 123.143 18.5223 124.014 18.1932C124.358 18.063 124.724 17.9857 125.079 17.8841L125.078 17.8831ZM121.884 31.6205C121.907 32.4058 121.98 32.9731 122.186 33.5171C122.384 34.0421 122.657 34.5194 123.18 34.7861C123.87 35.1375 124.518 34.9438 125.113 34.5554C125.749 34.1394 126.139 33.5161 126.399 32.826C126.877 31.5634 126.957 30.2637 126.668 28.945C126.582 28.5502 126.439 28.1724 126.191 27.8475C125.589 27.058 124.844 26.9511 123.925 27.3776C123.326 27.6559 122.914 28.1364 122.593 28.6942C122.031 29.6668 121.878 30.7305 121.884 31.6216V31.6205Z" fill="white"/>
</g>
<defs>
<clipPath id="clip0_249_1142">
<rect width="134" height="50" fill="white"/>
</clipPath>
</defs>
</svg>
